{
.appVersion = "3134";
DisplayStrings = (
"Haas/space \012Nibble/space \012Lucca/space \012Riddle\012Neem/space Ii\012Safflower\012Haggard\012Hochhaus\012Liiert\012Ujjak\012Lekker\012Mills\012Bomme\012Mannen\012Voodoo\012Sjrret\012RappeR\012aqqa\012Terror\012Kassa\012LittleBastuugnHalvveisGlowwormZaxxonPyynikkiFuzz\012Vonomo\012"
);
customParameters = (
{
disabled = 1;
name = glyphOrder;
value = (
.notdef,
A,
B,
a,
C,
D,
E,
G,
g,
H,
T,
I,
J,
N,
n,
O,
K,
L,
P,
S,
V,
W,
X,
Z,
i,
zero,
one,
two,
three,
four,
five,
six,
seven,
eight,
nine,
Q,
F,
R,
U,
Y,
k,
r,
t,
v,
w,
x,
M,
m,
p,
f,
question,
quotesingle,
u,
j,
l,
b,
c,
d,
o,
q,
y,
z,
s,
h,
e
);
}
);
date = "2023-06-27 21:42:50 +0000";
familyName = Unnamed;
fontMaster = (
{
ascender = 750;
capHeight = 700;
customParameters = (
{
name = typoAscender;
value = 750;
},
{
name = typoDescender;
value = -250;
},
{
name = typoLineGap;
value = 100;
},
{
name = winAscent;
value = 750;
},
{
name = winDescent;
value = 250;
},
{
name = underlineThickness;
value = 50;
},
{
name = underlinePosition;
value = -100;
},
{
name = strikeoutPosition;
value = 300;
},
{
name = strikeoutSize;
value = 50;
},
{
name = subscriptXOffset;
value = 0;
},
{
name = subscriptXSize;
value = 650;
},
{
name = subscriptYOffset;
value = 75;
},
{
name = subscriptYSize;
value = 600;
},
{
name = superscriptXOffset;
value = 0;
},
{
name = superscriptXSize;
value = 650;
},
{
name = superscriptYOffset;
value = 350;
},
{
name = superscriptYSize;
value = 600;
},
{
name = hheaAscender;
value = 750;
},
{
name = hheaDescender;
value = -250;
},
{
name = hheaLineGap;
value = 100;
}
);
descender = -250;
guideLines = (
{
position = "{0, 250}";
}
);
id = "506641A2-9742-4A10-B0B8-C0DC56E2C3BB";
xHeight = 500;
}
);
glyphs = (
{
color = 0;
glyphname = A;
lastChange = "2023-06-27 21:55:00 +0000";
layers = (
{
guideLines = (
{
angle = 90;
position = "{3, 0}";
},
{
angle = 90;
position = "{453, 0}";
}
);
layerId = "506641A2-9742-4A10-B0B8-C0DC56E2C3BB";
paths = (
{
closed = 1;
nodes = (
"31 333 OFFCURVE",
"39 558 OFFCURVE",
"93 651 CURVE SMOOTH",
"210 851 OFFCURVE",
"398 727 OFFCURVE",
"409 472 CURVE SMOOTH",
"411 427 OFFCURVE",
"399 239 OFFCURVE",
"395 106 CURVE SMOOTH",
"394 80 OFFCURVE",
"261 -52 OFFCURVE",
"258 22 CURVE SMOOTH",
"252 167 OFFCURVE",
"324 590 OFFCURVE",
"208 572 CURVE SMOOTH",
"96 555 OFFCURVE",
"101 247 OFFCURVE",
"101 247 CURVE",
"104 188 OFFCURVE",
"106 147 OFFCURVE",
"106 95 CURVE SMOOTH",
"106 78 OFFCURVE",
"99 52 OFFCURVE",
"81 25 CURVE SMOOTH",
"62 -4 OFFCURVE",
"31 -13 OFFCURVE",
"30 22 CURVE",
"30 61 OFFCURVE",
"31 142 OFFCURVE",
"31 180 CURVE SMOOTH"
);
},
{
closed = 1;
nodes = (
"83 447 OFFCURVE",
"137 483 OFFCURVE",
"207 490 CURVE SMOOTH",
"271 496 OFFCURVE",
"310 493 OFFCURVE",
"380 430 CURVE SMOOTH",
"413 400 OFFCURVE",
"428 253 OFFCURVE",
"350 253 CURVE",
"298 269 OFFCURVE",
"304 316 OFFCURVE",
"182 311 CURVE SMOOTH",
"93 307 OFFCURVE",
"83 246 OFFCURVE",
"49 244 CURVE SMOOTH",
"6 241 OFFCURVE",
"16 406 OFFCURVE",
"40 419 CURVE"
);
}
);
width = 429;
}
);
leftMetricsKey = "=H/2";
rightMetricsKey = "=H/2";
unicode = 0041;
},
{
glyphname = B;
lastChange = "2023-06-27 21:58:31 +0000";
layers = (
{
guideLines = (
{
angle = 90;
position = "{35, 0}";
},
{
angle = 90;
position = "{486, 0}";
}
);
layerId = "506641A2-9742-4A10-B0B8-C0DC56E2C3BB";
paths = (
{
closed = 1;
nodes = (
"42 346 OFFCURVE",
"43 564 OFFCURVE",
"97 656 CURVE SMOOTH",
"214 857 OFFCURVE",
"368 693 OFFCURVE",
"369 566 CURVE SMOOTH",
"370 499 OFFCURVE",
"346 439 OFFCURVE",
"285 433 CURVE SMOOTH",
"193 425 OFFCURVE",
"306 562 OFFCURVE",
"208 586 CURVE SMOOTH",
"100 613 OFFCURVE",
"108 249 OFFCURVE",
"108 249 CURVE SMOOTH",
"108 183 OFFCURVE",
"181 82 OFFCURVE",
"122 82 CURVE",
"58 77 OFFCURVE",
"41 148 OFFCURVE",
"41 193 CURVE SMOOTH"
);
},
{
closed = 1;
nodes = (
"96 461 OFFCURVE",
"173 528 OFFCURVE",
"236 539 CURVE SMOOTH",
"315 552 OFFCURVE",
"360 552 OFFCURVE",
"428 488 CURVE SMOOTH",
"460 457 OFFCURVE",
"518 271 OFFCURVE",
"440 271 CURVE",
"388 287 OFFCURVE",
"393 387 OFFCURVE",
"265 373 CURVE SMOOTH",
"176 363 OFFCURVE",
"101 250 OFFCURVE",
"67 236 CURVE",
"39 224 OFFCURVE",
"29 420 OFFCURVE",
"53 433 CURVE"
);
},
{
closed = 1;
nodes = (
"39 121 OFFCURVE",
"30 243 OFFCURVE",
"55 288 CURVE",
"72 310 OFFCURVE",
"107 307 OFFCURVE",
"108 273 CURVE SMOOTH",
"112 185 OFFCURVE",
"113 141 OFFCURVE",
"246 157 CURVE SMOOTH",
"348 169 OFFCURVE",
"431 253 OFFCURVE",
"411 287 CURVE SMOOTH",
"353 386 OFFCURVE",
"386 421 OFFCURVE",
"428 421 CURVE",
"505 421 OFFCURVE",
"496 211 OFFCURVE",
"419 125 CURVE SMOOTH",
"273 -37 OFFCURVE",
"122 -21 OFFCURVE",
"67 73 CURVE SMOOTH"
);
}
);
width = 502;
}
);
leftMetricsKey = "=H";
rightMetricsKey = "=O";
unicode = 0042;
},
{
glyphname = C;
lastChange = "2023-06-27 21:59:07 +0000";
layers = (
{
guideLines = (
{
angle = 90;
position = "{15, 0}";
},
{
angle = 90;
position = "{465, 0}";
},
{
position = "{15, 750}";
},
{
position = "{15, -1}";
}
);
layerId = "506641A2-9742-4A10-B0B8-C0DC56E2C3BB";
paths = (
{
closed = 1;
nodes = (
"-22 449 OFFCURVE",
"178 736 OFFCURVE",
"284 750 CURVE SMOOTH",
"323 755 OFFCURVE",
"378 717 OFFCURVE",
"415 628 CURVE",
"445 535 OFFCURVE",
"381 459 OFFCURVE",
"340 446 CURVE SMOOTH",
"287 429 OFFCURVE",
"264 557 OFFCURVE",
"221 574 CURVE SMOOTH",
"166 596 OFFCURVE",
"81 358 OFFCURVE",
"163 263 CURVE SMOOTH",
"297 108 OFFCURVE",
"370 291 OFFCURVE",
"388 261 CURVE SMOOTH",
"420 209 OFFCURVE",
"390 80 OFFCURVE",
"351 44 CURVE SMOOTH",
"304 0 OFFCURVE",
"219 -19 OFFCURVE",
"145 30 CURVE SMOOTH",
"99 60 OFFCURVE",
"43 122 OFFCURVE",
"28 199 CURVE SMOOTH"
);
}
);
width = 443;
}
);
leftMetricsKey = "=O";
rightMetricsKey = "=O";
unicode = 0043;
},
{
glyphname = D;
lastChange = "2023-06-27 21:59:23 +0000";
layers = (
{
guideLines = (
{
angle = 90;
position = "{27, 0}";
},
{
angle = 90;
position = "{478, 0}";
},
{
position = "{28, 0}";
}
);
layerId = "506641A2-9742-4A10-B0B8-C0DC56E2C3BB";
paths = (
{
closed = 1;
nodes = (
"23 124 OFFCURVE",
"45 217 OFFCURVE",
"70 262 CURVE",
"111 340 OFFCURVE",
"116 139 OFFCURVE",
"278 171 CURVE SMOOTH",
"329 181 OFFCURVE",
"360 201 OFFCURVE",
"372 228 CURVE SMOOTH",
"379 245 OFFCURVE",
"377 268 OFFCURVE",
"373 285 CURVE",
"364 411 OFFCURVE",
"183 506 OFFCURVE",
"116 555 CURVE SMOOTH",
"66 591 OFFCURVE",
"74 632 OFFCURVE",
"80 672 CURVE SMOOTH",
"86 711 OFFCURVE",
"88 750 OFFCURVE",
"102 750 CURVE SMOOTH",
"133 750 OFFCURVE",
"305 672 OFFCURVE",
"403 555 CURVE SMOOTH",
"466 479 OFFCURVE",
"485 384 OFFCURVE",
"448 286 CURVE",
"430 238 OFFCURVE",
"333 1 OFFCURVE",
"214 -1 CURVE",
"167 -2 OFFCURVE",
"124 0 OFFCURVE",
"59 80 CURVE SMOOTH"
);
},
{
closed = 1;
nodes = (
"176 629 LINE",
"187 622 OFFCURVE",
"184 594 OFFCURVE",
"184 581 CURVE SMOOTH",
"180 419 OFFCURVE",
"184 304 OFFCURVE",
"184 142 CURVE",
"184 125 OFFCURVE",
"177 81 OFFCURVE",
"159 54 CURVE SMOOTH",
"140 25 OFFCURVE",
"109 31 OFFCURVE",
"108 66 CURVE",
"108 245 OFFCURVE",
"87 481 OFFCURVE",
"91 648 CURVE SMOOTH",
"91 663 OFFCURVE",
"95 687 OFFCURVE",
"106 680 CURVE"
);
}
);
width = 487;
}
);
leftMetricsKey = "=H";
rightMetricsKey = "=O";
unicode = 0044;
},
{
glyphname = E;
lastChange = "2023-06-27 22:00:42 +0000";
layers = (
{
layerId = "506641A2-9742-4A10-B0B8-C0DC56E2C3BB";
paths = (
{
closed = 1;
nodes = (
"131 121 OFFCURVE",
"124 101 OFFCURVE",
"106 74 CURVE SMOOTH",
"87 45 OFFCURVE",
"44 93 OFFCURVE",
"43 128 CURVE",
"40 196 LINE",
"40 258 OFFCURVE",
"46 498 OFFCURVE",
"103 635 CURVE SMOOTH",
"113 659 OFFCURVE",
"174 603 OFFCURVE",
"166 585 CURVE SMOOTH",
"127 500 OFFCURVE",
"131 338 OFFCURVE",
"131 142 CURVE SMOOTH"
);
},
{
closed = 1;
nodes = (
"138 240 OFFCURVE",
"276 298 OFFCURVE",
"369 157 CURVE",
"377 142 OFFCURVE",
"365 -6 OFFCURVE",
"341 18 CURVE SMOOTH",
"177 183 OFFCURVE",
"114 -9 OFFCURVE",
"93 -8 CURVE SMOOTH",
"50 -6 OFFCURVE",
"26 142 OFFCURVE",
"50 165 CURVE"
);
},
{
closed = 1;
nodes = (
"75 759 OFFCURVE",
"124 726 OFFCURVE",
"193 716 CURVE SMOOTH",
"285 703 OFFCURVE",
"337 723 OFFCURVE",
"372 711 CURVE SMOOTH",
"387 706 OFFCURVE",
"384 579 OFFCURVE",
"366 578 CURVE",
"290 550 OFFCURVE",
"182 546 OFFCURVE",
"76 606 CURVE",
"38 618 OFFCURVE",
"52 737 OFFCURVE",
"61 746 CURVE SMOOTH"
);
},
{
closed = 1;
nodes = (
"96 507 OFFCURVE",
"352 513 OFFCURVE",
"356 444 CURVE SMOOTH",
"357 427 OFFCURVE",
"368 297 OFFCURVE",
"334 303 CURVE SMOOTH",
"243 320 OFFCURVE",
"89 307 OFFCURVE",
"69 303 CURVE SMOOTH",
"27 295 OFFCURVE",
"35 456 OFFCURVE",
"61 477 CURVE SMOOTH"
);
}
);
width = 422;
}
);
leftMetricsKey = "=H";
rightMetricsKey = "=H";
unicode = 0045;
},
{
glyphname = F;
lastChange = "2023-06-27 22:05:40 +0000";
layers = (
{
guideLines = (
{
angle = 90;
position = "{36, 0}";
},
{
angle = 90;
position = "{486, 0}";
}
);
layerId = "506641A2-9742-4A10-B0B8-C0DC56E2C3BB";
paths = (
{
closed = 1;
nodes = (
"139 58 OFFCURVE",
"132 38 OFFCURVE",
"114 11 CURVE SMOOTH",
"95 -18 OFFCURVE",
"76 18 OFFCURVE",
"75 53 CURVE",
"68 222 OFFCURVE",
"45 466 OFFCURVE",
"43 635 CURVE SMOOTH",
"43 661 OFFCURVE",
"106 647 OFFCURVE",
"108 627 CURVE SMOOTH",
"117 536 OFFCURVE",
"139 275 OFFCURVE",
"139 79 CURVE SMOOTH"
);
},
{
closed = 1;
nodes = (
"93 782 OFFCURVE",
"154 653 OFFCURVE",
"270 652 CURVE SMOOTH",
"424 651 OFFCURVE",
"432 751 OFFCURVE",
"473 748 CURVE SMOOTH",
"498 746 OFFCURVE",
"481 593 OFFCURVE",
"464 575 CURVE SMOOTH",
"426 533 OFFCURVE",
"363 500 OFFCURVE",
"265 500 CURVE",
"174 500 OFFCURVE",
"121 558 OFFCURVE",
"69 587 CURVE SMOOTH",
"33 608 OFFCURVE",
"38 745 OFFCURVE",
"46 755 CURVE"
);
},
{
closed = 1;
nodes = (
"115 454 OFFCURVE",
"371 460 OFFCURVE",
"375 391 CURVE SMOOTH",
"376 374 OFFCURVE",
"387 244 OFFCURVE",
"353 250 CURVE SMOOTH",
"272 264 OFFCURVE",
"89 250 OFFCURVE",
"89 250 CURVE SMOOTH",
"47 242 OFFCURVE",
"54 403 OFFCURVE",
"80 424 CURVE SMOOTH"
);
}
);
width = 526;
}
);
leftMetricsKey = "=H";
rightMetricsKey = "=H";
unicode = 0046;
},
{
glyphname = G;
lastChange = "2023-06-27 22:00:25 +0000";
layers = (
{
layerId = "506641A2-9742-4A10-B0B8-C0DC56E2C3BB";
paths = (
{
closed = 1;
nodes = (
"-22 449 OFFCURVE",
"178 736 OFFCURVE",
"284 750 CURVE SMOOTH",
"323 755 OFFCURVE",
"378 717 OFFCURVE",
"415 628 CURVE",
"445 535 OFFCURVE",
"400 492 OFFCURVE",
"357 491 CURVE SMOOTH",
"278 490 OFFCURVE",
"287 566 OFFCURVE",
"221 574 CURVE SMOOTH",
"162 581 OFFCURVE",
"81 358 OFFCURVE",
"163 263 CURVE SMOOTH",
"227 189 OFFCURVE",
"277 192 OFFCURVE",
"314 212 CURVE SMOOTH",
"354 234 OFFCURVE",
"380 230 OFFCURVE",
"389 214 CURVE SMOOTH",
"421 162 OFFCURVE",
"390 80 OFFCURVE",
"351 44 CURVE SMOOTH",
"304 0 OFFCURVE",
"219 -19 OFFCURVE",
"145 30 CURVE SMOOTH",
"99 60 OFFCURVE",
"43 122 OFFCURVE",
"28 199 CURVE SMOOTH"
);
},
{
closed = 1;
nodes = (
"389 232 OFFCURVE",
"372 207 OFFCURVE",
"461 167 CURVE",
"498 159 OFFCURVE",
"510 153 OFFCURVE",
"499 110 CURVE SMOOTH",
"477 26 LINE",
"465 -18 OFFCURVE",
"389 -2 OFFCURVE",
"338 57 CURVE SMOOTH",
"294 107 OFFCURVE",
"307 248 OFFCURVE",
"329 324 CURVE SMOOTH",
"337 351 OFFCURVE",
"347 358 OFFCURVE",
"357 328 CURVE"
);
},
{
closed = 1;
nodes = (
"390 235 OFFCURVE",
"298 226 OFFCURVE",
"234 295 CURVE",
"215 310 OFFCURVE",
"238 436 OFFCURVE",
"266 426 CURVE SMOOTH",
"371 387 OFFCURVE",
"391 425 OFFCURVE",
"417 426 CURVE SMOOTH",
"454 427 OFFCURVE",
"452 321 OFFCURVE",
"437 300 CURVE SMOOTH"
);
}
);
width = 523;
}
);
leftMetricsKey = "=O";
rightMetricsKey = "=O";
unicode = 0047;
},
{
color = 3;
glyphname = H;
lastChange = "2023-06-27 21:53:49 +0000";
layers = (
{
layerId = "506641A2-9742-4A10-B0B8-C0DC56E2C3BB";
paths = (
{
closed = 1;
nodes = (
"63 -15 OFFCURVE",
"94 -6 OFFCURVE",
"113 23 CURVE SMOOTH",
"131 50 OFFCURVE",
"138 76 OFFCURVE",
"138 93 CURVE SMOOTH",
"138 145 OFFCURVE",
"133 216 OFFCURVE",
"133 274 CURVE SMOOTH",
"133 276 LINE SMOOTH",
"133 275 OFFCURVE",
"143 711 OFFCURVE",
"122 741 CURVE",
"102 769 OFFCURVE",
"46 727 OFFCURVE",
"44 684 CURVE SMOOTH",
"31 411 OFFCURVE",
"57 259 OFFCURVE",
"62 20 CURVE SMOOTH"
);
},
{
closed = 1;
nodes = (
"363 -15 OFFCURVE",
"394 -6 OFFCURVE",
"413 23 CURVE SMOOTH",
"431 50 OFFCURVE",
"438 76 OFFCURVE",
"438 93 CURVE SMOOTH",
"438 145 OFFCURVE",
"444 215 OFFCURVE",
"441 274 CURVE",
"441 274 OFFCURVE",
"451 712 OFFCURVE",
"430 742 CURVE SMOOTH",
"410 770 OFFCURVE",
"351 726 OFFCURVE",
"349 683 CURVE SMOOTH",
"336 410 OFFCURVE",
"357 259 OFFCURVE",
"362 20 CURVE SMOOTH"
);
},
{
closed = 1;
nodes = (
"82 474 OFFCURVE",
"74 313 OFFCURVE",
"116 321 CURVE SMOOTH",
"136 325 OFFCURVE",
"290 338 OFFCURVE",
"381 321 CURVE SMOOTH",
"415 315 OFFCURVE",
"404 445 OFFCURVE",
"403 462 CURVE SMOOTH",
"399 531 OFFCURVE",
"143 525 OFFCURVE",
"108 495 CURVE SMOOTH"
);
}
);
width = 483;
}
);
rightMetricsKey = "=|";
unicode = 0048;
},
{
glyphname = I;
lastChange = "2023-06-27 22:00:58 +0000";
layers = (
{
guideLines = (
{
angle = 90;
position = "{176, 0}";
}
);
layerId = "506641A2-9742-4A10-B0B8-C0DC56E2C3BB";
paths = (
{
closed = 1;
nodes = (
"70 678 LINE",
"36 621 OFFCURVE",
"38 167 OFFCURVE",
"42 22 CURVE SMOOTH",
"44 -52 OFFCURVE",
"140 64 OFFCURVE",
"140 106 CURVE SMOOTH",
"140 249 OFFCURVE",
"142 424 OFFCURVE",
"145 469 CURVE SMOOTH",
"161 736 OFFCURVE",
"160 789 OFFCURVE",
"111 727 CURVE"
);
}
);
width = 194;
}
);
leftMetricsKey = "=H";
rightMetricsKey = "=H";
unicode = 0049;
},
{
glyphname = J;
lastChange = "2023-06-27 22:01:10 +0000";
layers = (
{
layerId = "506641A2-9742-4A10-B0B8-C0DC56E2C3BB";
paths = (
{
closed = 1;
nodes = (
"28 100 OFFCURVE",
"34 186 OFFCURVE",
"59 231 CURVE",
"76 253 OFFCURVE",
"182 415 OFFCURVE",
"204 397 CURVE SMOOTH",
"228 377 OFFCURVE",
"161 317 OFFCURVE",
"170 222 CURVE",
"176 157 OFFCURVE",
"262 82 OFFCURVE",
"324 151 CURVE",
"396 288 OFFCURVE",
"529 285 OFFCURVE",
"417 138 CURVE SMOOTH",
"287 -33 OFFCURVE",
"168 -26 OFFCURVE",
"78 55 CURVE SMOOTH"
);
},
{
closed = 1;
nodes = (
"413 705 LINE",
"499 808 OFFCURVE",
"483 735 OFFCURVE",
"461 466 CURVE SMOOTH",
"457 421 OFFCURVE",
"465 355 OFFCURVE",
"461 222 CURVE",
"456 161 OFFCURVE",
"318 65 OFFCURVE",
"319 139 CURVE SMOOTH",
"319 150 OFFCURVE",
"331 153 OFFCURVE",
"330 173 CURVE SMOOTH",
"322 332 OFFCURVE",
"327 613 OFFCURVE",
"370 660 CURVE"
);
}
);
width = 518;
}
);
leftMetricsKey = "=H";
rightMetricsKey = "=H";
unicode = 004A;
},
{
glyphname = K;
lastChange = "2023-06-27 22:01:37 +0000";
layers = (
{
layerId = "506641A2-9742-4A10-B0B8-C0DC56E2C3BB";
paths = (
{
closed = 1;
nodes = (
"236 547 OFFCURVE",
"275 331 OFFCURVE",
"443 130 CURVE SMOOTH",
"465 104 OFFCURVE",
"363 -15 OFFCURVE",
"343 0 CURVE SMOOTH",
"271 54 OFFCURVE",
"188 238 OFFCURVE",
"116 351 CURVE SMOOTH",
"93 387 OFFCURVE",
"178 455 OFFCURVE",
"184 465 CURVE SMOOTH"
);
},
{
closed = 1;
nodes = (
"122 695 LINE SMOOTH",
"222 785 OFFCURVE",
"205 783 OFFCURVE",
"176 501 CURVE SMOOTH",
"171 456 OFFCURVE",
"178 243 OFFCURVE",
"174 110 CURVE",
"170 63 OFFCURVE",
"50 -80 OFFCURVE",
"43 61 CURVE SMOOTH",
"35 220 OFFCURVE",
"40 613 OFFCURVE",
"83 660 CURVE"
);
},
{
closed = 1;
nodes = (
"220 510 OFFCURVE",
"284 612 OFFCURVE",
"404 742 CURVE",
"412 749 OFFCURVE",
"456 758 OFFCURVE",
"453 737 CURVE",
"448 708 OFFCURVE",
"227 438 OFFCURVE",
"177 381 CURVE SMOOTH",
"148 348 OFFCURVE",
"103 374 OFFCURVE",
"127 402 CURVE SMOOTH"
);
}
);
width = 493;
}
);
leftMetricsKey = "=H";
rightMetricsKey = "=H";
unicode = 004B;
},
{
glyphname = L;
lastChange = "2023-06-27 22:35:58 +0000";
layers = (
{
layerId = "506641A2-9742-4A10-B0B8-C0DC56E2C3BB";
paths = (
{
closed = 1;
nodes = (
"42 73 OFFCURVE",
"74 79 OFFCURVE",
"95 107 CURVE SMOOTH",
"115 132 OFFCURVE",
"125 158 OFFCURVE",
"126 175 CURVE SMOOTH",
"142 711 LINE SMOOTH",
"143 746 OFFCURVE",
"75 704 OFFCURVE",
"72 662 CURVE SMOOTH",
"51 379 OFFCURVE",
"57 347 OFFCURVE",
"44 108 CURVE SMOOTH"
);
},
{
closed = 1;
nodes = (
"475 3 OFFCURVE",
"484 144 OFFCURVE",
"440 184 CURVE SMOOTH",
"341 274 OFFCURVE",
"225 321 OFFCURVE",
"69 176 CURVE",
"41 161 OFFCURVE",
"25 -12 OFFCURVE",
"59 3 CURVE",
"119 16 OFFCURVE",
"132 105 OFFCURVE",
"256 108 CURVE",
"393 111 OFFCURVE",
"408 -5 OFFCURVE",
"460 1 CURVE SMOOTH"
);
}
);
width = 512;
}
);
leftKerningGroup = L;
leftMetricsKey = "=H";
rightKerningGroup = L;
rightMetricsKey = "=H";
unicode = 004C;
},
{
glyphname = M;
lastChange = "2023-06-27 22:07:13 +0000";
layers = (
{
guideLines = (
{
position = "{14, 419}";
}
);
layerId = "506641A2-9742-4A10-B0B8-C0DC56E2C3BB";
paths = (
{
closed = 1;
nodes = (
"446 810 OFFCURVE",
"413 585 OFFCURVE",
"423 539 CURVE SMOOTH",
"435 482 OFFCURVE",
"501 26 OFFCURVE",
"628 1 CURVE SMOOTH",
"663 -6 OFFCURVE",
"703 123 OFFCURVE",
"678 155 CURVE SMOOTH",
"588 271 OFFCURVE",
"539 552 OFFCURVE",
"474 732 CURVE SMOOTH"
);
},
{
closed = 1;
nodes = (
"473 750 OFFCURVE",
"464 757 OFFCURVE",
"443 729 CURVE SMOOTH",
"423 704 OFFCURVE",
"411 678 OFFCURVE",
"412 661 CURVE SMOOTH",
"423 305 OFFCURVE",
"329 259 OFFCURVE",
"329 199 CURVE",
"347 169 OFFCURVE",
"380 188 OFFCURVE",
"399 248 CURVE SMOOTH",
"474 484 OFFCURVE",
"458 476 OFFCURVE",
"471 715 CURVE SMOOTH"
);
},
{
closed = 1;
nodes = (
"243 813 OFFCURVE",
"192 591 OFFCURVE",
"198 544 CURVE SMOOTH",
"205 487 OFFCURVE",
"235 35 OFFCURVE",
"359 0 CURVE SMOOTH",
"394 -10 OFFCURVE",
"443 107 OFFCURVE",
"421 141 CURVE SMOOTH",
"340 264 OFFCURVE",
"314 548 OFFCURVE",
"264 733 CURVE SMOOTH"
);
},
{
closed = 1;
nodes = (
"265 751 OFFCURVE",
"256 758 OFFCURVE",
"233 732 CURVE SMOOTH",
"211 709 OFFCURVE",
"198 684 OFFCURVE",
"197 667 CURVE SMOOTH",
"180 311 OFFCURVE",
"25 71 OFFCURVE",
"20 11 CURVE",
"35 -20 OFFCURVE",
"77 15 OFFCURVE",
"93 54 CURVE SMOOTH",
"186 283 OFFCURVE",
"228 479 OFFCURVE",
"260 716 CURVE SMOOTH"
);
}
);
width = 706;
}
);
leftMetricsKey = "=A";
rightMetricsKey = "=A";
unicode = 004D;
},
{
glyphname = N;
lastChange = "2023-06-27 22:01:23 +0000";
layers = (
{
guideLines = (
{
position = "{22, 750}";
},
{
position = "{22, 0}";
},
{
angle = 90;
position = "{22, 0}";
},
{
angle = 90;
position = "{471, 0}";
}
);
layerId = "506641A2-9742-4A10-B0B8-C0DC56E2C3BB";
paths = (
{
closed = 1;
nodes = (
"63 -15 OFFCURVE",
"94 -6 OFFCURVE",
"113 23 CURVE SMOOTH",
"131 50 OFFCURVE",
"138 52 OFFCURVE",
"138 93 CURVE SMOOTH",
"138 145 OFFCURVE",
"134 255 OFFCURVE",
"134 313 CURVE",
"134 312 OFFCURVE",
"143 711 OFFCURVE",
"122 741 CURVE",
"102 769 OFFCURVE",
"46 727 OFFCURVE",
"44 684 CURVE SMOOTH",
"31 411 OFFCURVE",
"57 259 OFFCURVE",
"62 20 CURVE SMOOTH"
);
},
{
closed = 1;
nodes = (
"377 -9 OFFCURVE",
"450 -13 OFFCURVE",
"450 42 CURVE SMOOTH",
"450 94 OFFCURVE",
"456 215 OFFCURVE",
"453 274 CURVE",
"453 274 OFFCURVE",
"463 712 OFFCURVE",
"442 742 CURVE SMOOTH",
"422 770 OFFCURVE",
"363 726 OFFCURVE",
"361 683 CURVE SMOOTH",
"348 410 OFFCURVE",
"351 289 OFFCURVE",
"374 26 CURVE SMOOTH"
);
},
{
closed = 1;
nodes = (
"426 -47 OFFCURVE",
"433 178 OFFCURVE",
"423 224 CURVE SMOOTH",
"411 281 OFFCURVE",
"143 711 OFFCURVE",
"122 741 CURVE",
"102 769 OFFCURVE",
"38 653 OFFCURVE",
"44 610 CURVE SMOOTH",
"65 469 OFFCURVE",
"268 151 OFFCURVE",
"374 18 CURVE SMOOTH"
);
}
);
width = 495;
}
);
leftMetricsKey = "=H";
rightMetricsKey = "=H";
unicode = 004E;
},
{
glyphname = O;
lastChange = "2023-06-27 21:58:22 +0000";
layers = (
{
guideLines = (
{
angle = 90;
position = "{16, 0}";
}
);
layerId = "506641A2-9742-4A10-B0B8-C0DC56E2C3BB";
paths = (
{
closed = 1;
nodes = (
"-22 350 OFFCURVE",
"72 602 OFFCURVE",
"156 647 CURVE SMOOTH",
"173 656 OFFCURVE",
"193 588 OFFCURVE",
"180 574 CURVE SMOOTH",
"165 558 OFFCURVE",
"165 557 OFFCURVE",
"150 539 CURVE SMOOTH",
"94 472 OFFCURVE",
"91 348 OFFCURVE",
"150 266 CURVE SMOOTH",
"205 190 OFFCURVE",
"269 173 OFFCURVE",
"299 167 CURVE",
"359 155 OFFCURVE",
"361 112 OFFCURVE",
"327 71 CURVE SMOOTH",
"292 28 OFFCURVE",
"251 -14 OFFCURVE",
"193 6 CURVE",
"143 28 OFFCURVE",
"65 93 OFFCURVE",
"40 168 CURVE SMOOTH"
);
},
{
closed = 1;
nodes = (
"463 288 OFFCURVE",
"458 181 OFFCURVE",
"387 107 CURVE",
"356 74 OFFCURVE",
"314 42 OFFCURVE",
"288 54 CURVE SMOOTH",
"261 66 OFFCURVE",
"257 138 OFFCURVE",
"264 156 CURVE SMOOTH",
"271 173 OFFCURVE",
"312 162 OFFCURVE",
"332 175 CURVE SMOOTH",
"365 196 OFFCURVE",
"323 333 OFFCURVE",
"264 415 CURVE SMOOTH",
"209 491 OFFCURVE",
"188 554 OFFCURVE",
"158 560 CURVE",
"100 595 OFFCURVE",
"130 703 OFFCURVE",
"164 744 CURVE SMOOTH",
"206 796 OFFCURVE",
"396 486 OFFCURVE",
"416 428 CURVE SMOOTH"
);
}
);
width = 467;
}
);
leftMetricsKey = "=H/2";
rightMetricsKey = "=H/2";
unicode = 004F;
},
{
glyphname = P;
lastChange = "2023-06-27 22:01:53 +0000";
layers = (
{
layerId = "506641A2-9742-4A10-B0B8-C0DC56E2C3BB";
paths = (
{
closed = 1;
nodes = (
"271 412 OFFCURVE",
"150 472 OFFCURVE",
"84 555 CURVE SMOOTH",
"46 603 OFFCURVE",
"36 634 OFFCURVE",
"42 674 CURVE SMOOTH",
"48 713 OFFCURVE",
"53 750 OFFCURVE",
"67 750 CURVE SMOOTH",
"98 750 OFFCURVE",
"139 670 OFFCURVE",
"330 532 CURVE SMOOTH",
"428 461 OFFCURVE",
"378 389 OFFCURVE",
"368 350 CURVE SMOOTH",
"362 330 OFFCURVE",
"357 306 OFFCURVE",
"341 290 CURVE",
"328 277 OFFCURVE",
"318 288 OFFCURVE",
"314 290 CURVE SMOOTH",
"287 299 OFFCURVE",
"319 341 OFFCURVE",
"307 359 CURVE SMOOTH"
);
},
{
closed = 1;
nodes = (
"144 629 LINE",
"155 622 OFFCURVE",
"152 594 OFFCURVE",
"152 581 CURVE SMOOTH",
"148 419 OFFCURVE",
"136 269 OFFCURVE",
"138 107 CURVE",
"138 90 OFFCURVE",
"131 46 OFFCURVE",
"113 19 CURVE SMOOTH",
"94 -10 OFFCURVE",
"62 -4 OFFCURVE",
"62 31 CURVE SMOOTH",
"62 210 OFFCURVE",
"74 465 OFFCURVE",
"78 632 CURVE SMOOTH",
"78 647 OFFCURVE",
"88 666 OFFCURVE",
"111 651 CURVE SMOOTH"
);
},
{
closed = 1;
nodes = (
"347 342 LINE SMOOTH",
"361 330 OFFCURVE",
"349 213 OFFCURVE",
"182 213 CURVE SMOOTH",
"84 213 OFFCURVE",
"41 235 OFFCURVE",
"46 272 CURVE SMOOTH",
"61 382 OFFCURVE",
"29 382 OFFCURVE",
"192 359 CURVE SMOOTH",
"241 352 OFFCURVE",
"312 332 OFFCURVE",
"310 351 CURVE SMOOTH",
"309 360 OFFCURVE",
"334 353 OFFCURVE",
"340 348 CURVE SMOOTH"
);
}
);
width = 410;
}
);
leftMetricsKey = "=H";
rightMetricsKey = "=O";
unicode = 0050;
},
{
glyphname = Q;
lastChange = "2023-06-27 22:05:24 +0000";
layers = (
{
layerId = "506641A2-9742-4A10-B0B8-C0DC56E2C3BB";
paths = (
{
closed = 1;
nodes = (
"-22 351 OFFCURVE",
"72 603 OFFCURVE",
"156 648 CURVE SMOOTH",
"173 657 OFFCURVE",
"193 589 OFFCURVE",
"180 575 CURVE SMOOTH",
"165 559 OFFCURVE",
"165 558 OFFCURVE",
"150 540 CURVE SMOOTH",
"94 473 OFFCURVE",
"91 349 OFFCURVE",
"150 267 CURVE SMOOTH",
"205 191 OFFCURVE",
"269 174 OFFCURVE",
"299 168 CURVE",
"359 156 OFFCURVE",
"361 113 OFFCURVE",
"327 72 CURVE SMOOTH",
"292 29 OFFCURVE",
"251 -13 OFFCURVE",
"193 7 CURVE",
"143 29 OFFCURVE",
"65 94 OFFCURVE",
"40 169 CURVE SMOOTH"
);
},
{
closed = 1;
nodes = (
"463 289 OFFCURVE",
"458 182 OFFCURVE",
"387 108 CURVE",
"356 75 OFFCURVE",
"314 43 OFFCURVE",
"288 55 CURVE SMOOTH",
"261 67 OFFCURVE",
"257 139 OFFCURVE",
"264 157 CURVE SMOOTH",
"271 174 OFFCURVE",
"312 163 OFFCURVE",
"332 176 CURVE SMOOTH",
"365 197 OFFCURVE",
"323 334 OFFCURVE",
"264 416 CURVE SMOOTH",
"209 492 OFFCURVE",
"188 555 OFFCURVE",
"158 561 CURVE",
"100 596 OFFCURVE",
"130 704 OFFCURVE",
"164 745 CURVE SMOOTH",
"206 797 OFFCURVE",
"396 487 OFFCURVE",
"416 429 CURVE SMOOTH"
);
},
{
closed = 1;
nodes = (
"244 223 OFFCURVE",
"336 37 OFFCURVE",
"203 287 CURVE",
"184 325 OFFCURVE",
"205 382 OFFCURVE",
"237 366 CURVE SMOOTH",
"255 357 OFFCURVE",
"351 197 OFFCURVE",
"394 113 CURVE SMOOTH",
"402 97 OFFCURVE",
"406 71 OFFCURVE",
"403 39 CURVE SMOOTH",
"400 4 OFFCURVE",
"377 -18 OFFCURVE",
"360 13 CURVE SMOOTH"
);
}
);
width = 467;
}
);
leftMetricsKey = "=O";
rightMetricsKey = "=O";
unicode = 0051;
},
{
glyphname = R;
lastChange = "2023-06-27 22:06:35 +0000";
layers = (
{
layerId = "506641A2-9742-4A10-B0B8-C0DC56E2C3BB";
paths = (
{
closed = 1;
nodes = (
"157 381 OFFCURVE",
"84 407 OFFCURVE",
"131 455 CURVE SMOOTH",
"154 478 OFFCURVE",
"222 484 OFFCURVE",
"246 525 CURVE",
"269 558 OFFCURVE",
"260 593 OFFCURVE",
"209 602 CURVE SMOOTH",
"99 621 OFFCURVE",
"107 361 OFFCURVE",
"107 361 CURVE SMOOTH",
"111 191 OFFCURVE",
"163 0 OFFCURVE",
"98 0 CURVE SMOOTH",
"55 0 OFFCURVE",
"72 49 OFFCURVE",
"56 279 CURVE SMOOTH",
"45 439 OFFCURVE",
"20 569 OFFCURVE",
"74 661 CURVE",
"144 781 OFFCURVE",
"230 776 OFFCURVE",
"283 733 CURVE SMOOTH",
"406 633 OFFCURVE",
"314 405 OFFCURVE",
"183 385 CURVE SMOOTH"
);
},
{
closed = 1;
nodes = (
"69 407 OFFCURVE",
"9 549 OFFCURVE",
"63 586 CURVE SMOOTH",
"90 605 OFFCURVE",
"135 627 OFFCURVE",
"145 565 CURVE SMOOTH",
"165 439 OFFCURVE",
"301 153 OFFCURVE",
"399 144 CURVE SMOOTH",
"436 141 OFFCURVE",
"453 167 OFFCURVE",
"468 159 CURVE SMOOTH",
"477 154 OFFCURVE",
"479 130 OFFCURVE",
"458 77 CURVE SMOOTH",
"436 24 OFFCURVE",
"397 -16 OFFCURVE",
"324 12 CURVE SMOOTH",
"211 55 OFFCURVE",
"140 232 OFFCURVE",
"95 343 CURVE SMOOTH"
);
}
);
width = 514;
}
);
leftMetricsKey = "=H";
rightMetricsKey = "=H";
unicode = 0052;
},
{
glyphname = S;
lastChange = "2023-06-27 22:02:10 +0000";
layers = (
{
layerId = "506641A2-9742-4A10-B0B8-C0DC56E2C3BB";
paths = (
{
closed = 1;
nodes = (
"93 617 LINE SMOOTH",
"118 705 OFFCURVE",
"103 566 OFFCURVE",
"270 475 CURVE",
"360 425 OFFCURVE",
"382 332 OFFCURVE",
"382 289 CURVE SMOOTH",
"382 246 OFFCURVE",
"331 117 OFFCURVE",
"331 156 CURVE SMOOTH",
"331 195 OFFCURVE",
"317 271 OFFCURVE",
"210 342 CURVE SMOOTH",
"103 413 OFFCURVE",
"54 482 OFFCURVE",
"75 554 CURVE SMOOTH"
);
},
{
closed = 1;
nodes = (
"118 342 OFFCURVE",
"92 296 OFFCURVE",
"90 252 CURVE SMOOTH",
"88 208 OFFCURVE",
"102 161 OFFCURVE",
"161 149 CURVE SMOOTH",
"226 136 OFFCURVE",
"271 150 OFFCURVE",
"303 178 CURVE SMOOTH",
"330 201 OFFCURVE",
"311 236 OFFCURVE",
"304 265 CURVE SMOOTH",
"292 315 OFFCURVE",
"455 438 OFFCURVE",
"342 110 CURVE SMOOTH",
"324 57 OFFCURVE",
"245 8 OFFCURVE",
"170 5 CURVE SMOOTH",
"126 3 OFFCURVE",
"84 17 OFFCURVE",
"40 72 CURVE SMOOTH",
"4 117 OFFCURVE",
"12 290 OFFCURVE",
"102 334 CURVE SMOOTH"
);
},
{
closed = 1;
nodes = (
"283 467 OFFCURVE",
"320 580 OFFCURVE",
"237 612 CURVE SMOOTH",
"209 623 OFFCURVE",
"183 625 OFFCURVE",
"155 600 CURVE SMOOTH",
"131 579 OFFCURVE",
"179 558 OFFCURVE",
"185 531 CURVE SMOOTH",
"195 485 OFFCURVE",
"5 369 OFFCURVE",
"105 669 CURVE SMOOTH",
"121 718 OFFCURVE",
"180 758 OFFCURVE",
"247 761 CURVE SMOOTH",
"286 763 OFFCURVE",
"326 750 OFFCURVE",
"366 700 CURVE SMOOTH",
"398 659 OFFCURVE",
"363 588 OFFCURVE",
"316 517 CURVE SMOOTH"
);
}
);
width = 402;
}
);
leftMetricsKey = "=O";
rightMetricsKey = "=O";
unicode = 0053;
},
{
glyphname = T;
lastChange = "2023-06-27 21:59:39 +0000";
layers = (
{
layerId = "506641A2-9742-4A10-B0B8-C0DC56E2C3BB";
paths = (
{
closed = 1;
nodes = (
"202 -15 OFFCURVE",
"234 -9 OFFCURVE",
"255 19 CURVE SMOOTH",
"275 44 OFFCURVE",
"284 70 OFFCURVE",
"286 87 CURVE SMOOTH",
"294 181 OFFCURVE",
"313 595 OFFCURVE",
"302 612 CURVE SMOOTH",
"284 642 OFFCURVE",
"235 605 OFFCURVE",
"232 563 CURVE SMOOTH",
"211 280 OFFCURVE",
"217 259 OFFCURVE",
"204 20 CURVE SMOOTH"
);
},
{
closed = 1;
nodes = (
"40 737 OFFCURVE",
"26 594 OFFCURVE",
"72 569 CURVE SMOOTH",
"196 500 OFFCURVE",
"287 482 OFFCURVE",
"443 577 CURVE",
"471 592 OFFCURVE",
"487 765 OFFCURVE",
"453 750 CURVE",
"395 727 OFFCURVE",
"375 682 OFFCURVE",
"251 679 CURVE SMOOTH",
"114 676 OFFCURVE",
"77 765 OFFCURVE",
"52 746 CURVE SMOOTH"
);
}
);
width = 512;
}
);
leftMetricsKey = "=H";
rightMetricsKey = "=H";
unicode = 0054;
},
{
glyphname = U;
lastChange = "2023-06-27 22:06:45 +0000";
layers = (
{
layerId = "506641A2-9742-4A10-B0B8-C0DC56E2C3BB";
paths = (
{
closed = 1;
nodes = (
"46 264 OFFCURVE",
"119 228 OFFCURVE",
"131 255 CURVE SMOOTH",
"137 268 LINE",
"137 268 OFFCURVE",
"120 624 OFFCURVE",
"119 740 CURVE SMOOTH",
"119 759 OFFCURVE",
"97 760 OFFCURVE",
"83 750 CURVE SMOOTH",
"40 718 OFFCURVE",
"44 716 OFFCURVE",
"43 655 CURVE SMOOTH",
"40 383 OFFCURVE",
"39 559 OFFCURVE",
"45 320 CURVE SMOOTH"
);
},
{
closed = 1;
nodes = (
"42 428 OFFCURVE",
"42 429 OFFCURVE",
"42 378 CURVE",
"42 325 OFFCURVE",
"48 209 OFFCURVE",
"113 101 CURVE SMOOTH",
"171 5 OFFCURVE",
"229 -2 OFFCURVE",
"273 0 CURVE SMOOTH",
"348 3 OFFCURVE",
"404 71 OFFCURVE",
"424 123 CURVE SMOOTH",
"467 237 OFFCURVE",
"458 331 OFFCURVE",
"443 353 CURVE SMOOTH",
"420 386 OFFCURVE",
"361 316 OFFCURVE",
"363 280 CURVE SMOOTH",
"365 227 OFFCURVE",
"309 186 OFFCURVE",
"261 184 CURVE SMOOTH",
"190 181 OFFCURVE",
"134 255 OFFCURVE",
"136 299 CURVE",
"131 346 OFFCURVE",
"135 459 OFFCURVE",
"86 450 CURVE"
);
},
{
closed = 1;
nodes = (
"364 224 OFFCURVE",
"444 203 OFFCURVE",
"449 244 CURVE SMOOTH",
"455 292 LINE SMOOTH",
"455 292 OFFCURVE",
"440 624 OFFCURVE",
"439 740 CURVE SMOOTH",
"439 759 OFFCURVE",
"417 760 OFFCURVE",
"403 750 CURVE SMOOTH",
"360 718 OFFCURVE",
"364 716 OFFCURVE",
"363 655 CURVE SMOOTH",
"360 383 OFFCURVE",
"357 519 OFFCURVE",
"363 280 CURVE SMOOTH"
);
}
);
width = 495;
}
);
leftMetricsKey = "=H";
rightMetricsKey = "=H";
unicode = 0055;
},
{
glyphname = V;
lastChange = "2023-06-27 22:02:25 +0000";
layers = (
{
layerId = "506641A2-9742-4A10-B0B8-C0DC56E2C3BB";
paths = (
{
closed = 1;
nodes = (
"260 -62 OFFCURVE",
"293 163 OFFCURVE",
"283 209 CURVE SMOOTH",
"271 266 OFFCURVE",
"205 722 OFFCURVE",
"78 747 CURVE SMOOTH",
"43 754 OFFCURVE",
"3 625 OFFCURVE",
"28 593 CURVE SMOOTH",
"118 477 OFFCURVE",
"167 196 OFFCURVE",
"232 16 CURVE SMOOTH"
);
},
{
closed = 1;
nodes = (
"233 -2 OFFCURVE",
"242 -9 OFFCURVE",
"263 19 CURVE SMOOTH",
"283 44 OFFCURVE",
"295 70 OFFCURVE",
"294 87 CURVE SMOOTH",
"283 443 OFFCURVE",
"418 674 OFFCURVE",
"418 734 CURVE",
"400 764 OFFCURVE",
"361 725 OFFCURVE",
"348 685 CURVE SMOOTH",
"274 449 OFFCURVE",
"248 272 OFFCURVE",
"235 33 CURVE SMOOTH"
);
}
);
width = 438;
}
);
leftMetricsKey = "=A";
rightMetricsKey = "=A";
unicode = 0056;
},
{
glyphname = W;
lastChange = "2023-06-27 22:02:34 +0000";
layers = (
{
layerId = "506641A2-9742-4A10-B0B8-C0DC56E2C3BB";
paths = (
{
closed = 1;
nodes = (
"260 -62 OFFCURVE",
"293 163 OFFCURVE",
"283 209 CURVE SMOOTH",
"271 266 OFFCURVE",
"205 722 OFFCURVE",
"78 747 CURVE SMOOTH",
"43 754 OFFCURVE",
"3 625 OFFCURVE",
"28 593 CURVE SMOOTH",
"118 477 OFFCURVE",
"167 196 OFFCURVE",
"232 16 CURVE SMOOTH"
);
},
{
closed = 1;
nodes = (
"233 -2 OFFCURVE",
"242 -9 OFFCURVE",
"263 19 CURVE SMOOTH",
"283 44 OFFCURVE",
"295 70 OFFCURVE",
"294 87 CURVE SMOOTH",
"283 443 OFFCURVE",
"377 489 OFFCURVE",
"377 549 CURVE",
"359 579 OFFCURVE",
"320 540 OFFCURVE",
"307 500 CURVE SMOOTH",
"233 264 OFFCURVE",
"248 272 OFFCURVE",
"235 33 CURVE SMOOTH"
);
},
{
closed = 1;
nodes = (
"430 -65 OFFCURVE",
"481 157 OFFCURVE",
"475 204 CURVE SMOOTH",
"468 261 OFFCURVE",
"439 721 OFFCURVE",
"315 756 CURVE SMOOTH",
"280 766 OFFCURVE",
"230 641 OFFCURVE",
"252 607 CURVE SMOOTH",
"333 484 OFFCURVE",
"359 200 OFFCURVE",
"409 15 CURVE SMOOTH"
);
},
{
closed = 1;
nodes = (
"408 -3 OFFCURVE",
"417 -10 OFFCURVE",
"440 16 CURVE SMOOTH",
"462 39 OFFCURVE",
"475 64 OFFCURVE",
"476 81 CURVE SMOOTH",
"493 437 OFFCURVE",
"648 677 OFFCURVE",
"653 737 CURVE",
"638 768 OFFCURVE",
"596 733 OFFCURVE",
"580 694 CURVE SMOOTH",
"487 465 OFFCURVE",
"445 269 OFFCURVE",
"413 32 CURVE SMOOTH"
);
}
);
width = 673;
}
);
leftMetricsKey = "=A";
rightMetricsKey = "=A";
unicode = 0057;
},
{
glyphname = X;
lastChange = "2023-06-27 22:04:45 +0000";
layers = (
{
layerId = "506641A2-9742-4A10-B0B8-C0DC56E2C3BB";
paths = (
{
closed = 1;
nodes = (
"357 -45 OFFCURVE",
"441 90 OFFCURVE",
"428 113 CURVE",
"376 195 OFFCURVE",
"149 683 OFFCURVE",
"98 750 CURVE SMOOTH",
"76 779 OFFCURVE",
"-12 605 OFFCURVE",
"32 557 CURVE",
"105 419 OFFCURVE",
"246 172 OFFCURVE",
"333 2 CURVE SMOOTH"
);
},
{
closed = 1;
nodes = (
"16 -5 OFFCURVE",
"33 -6 OFFCURVE",
"65 9 CURVE SMOOTH",
"91 21 OFFCURVE",
"91 19 OFFCURVE",
"95 35 CURVE",
"192 378 OFFCURVE",
"422 672 OFFCURVE",
"440 730 CURVE",
"432 764 OFFCURVE",
"382 738 OFFCURVE",
"358 704 CURVE SMOOTH",
"215 502 OFFCURVE",
"113 252 OFFCURVE",
"28 28 CURVE SMOOTH"
);
}
);
width = 460;
}
);
leftMetricsKey = "=A";
rightMetricsKey = "=A";
unicode = 0058;
},
{
glyphname = Y;
lastChange = "2023-06-27 22:07:03 +0000";
layers = (
{
guideLines = (
{
angle = 90;
position = "{2, 0}";
},
{
angle = 90;
position = "{434, 0}";
}
);
layerId = "506641A2-9742-4A10-B0B8-C0DC56E2C3BB";
paths = (
{
closed = 1;
nodes = (
"282 389 OFFCURVE",
"266 485 OFFCURVE",
"270 508 CURVE SMOOTH",
"274 531 OFFCURVE",
"273 574 OFFCURVE",
"265 564 CURVE SMOOTH",
"248 542 OFFCURVE",
"237 543 OFFCURVE",
"225 543 CURVE SMOOTH",
"205 543 OFFCURVE",
"163 551 OFFCURVE",
"134 585 CURVE SMOOTH",
"117 606 OFFCURVE",
"100 673 OFFCURVE",
"89 706 CURVE SMOOTH",
"48 830 OFFCURVE",
"14 642 OFFCURVE",
"21 592 CURVE",
"22 589 OFFCURVE",
"31 500 OFFCURVE",
"85 436 CURVE SMOOTH",
"107 410 OFFCURVE",
"157 389 OFFCURVE",
"187 389 CURVE SMOOTH"
);
},
{
closed = 1;
nodes = (
"190 17 OFFCURVE",
"208 -10 OFFCURVE",
"232 4 CURVE",
"261 17 OFFCURVE",
"280 85 OFFCURVE",
"273 98 CURVE SMOOTH",
"217 211 OFFCURVE",
"210 312 OFFCURVE",
"249 391 CURVE SMOOTH",
"302 498 OFFCURVE",
"419 592 OFFCURVE",
"428 688 CURVE",
"433 741 OFFCURVE",
"410 776 OFFCURVE",
"387 740 CURVE SMOOTH",
"340 667 OFFCURVE",
"255 560 OFFCURVE",
"221 496 CURVE SMOOTH",
"147 359 OFFCURVE",
"65 241 OFFCURVE",
"172 50 CURVE SMOOTH"
);
}
);
width = 449;
}
);
leftMetricsKey = "=A";
rightMetricsKey = "=A";
unicode = 0059;
},
{
glyphname = Z;
lastChange = "2023-06-27 22:04:57 +0000";
layers = (
{
guideLines = (
{
angle = 90;
position = "{448, 0}";
},
{
angle = 90;
position = "{22, 0}";
}
);
layerId = "506641A2-9742-4A10-B0B8-C0DC56E2C3BB";
paths = (
{
closed = 1;
nodes = (
"30 770 OFFCURVE",
"166 722 OFFCURVE",
"232 723 CURVE",
"331 716 OFFCURVE",
"412 749 OFFCURVE",
"441 737 CURVE SMOOTH",
"454 732 OFFCURVE",
"454 616 OFFCURVE",
"438 609 CURVE SMOOTH",
"375 581 OFFCURVE",
"167 542 OFFCURVE",
"41 604 CURVE SMOOTH",
"10 619 OFFCURVE",
"24 693 OFFCURVE",
"27 732 CURVE SMOOTH"
);
},
{
closed = 1;
nodes = (
"168 409 OFFCURVE",
"149 409 OFFCURVE",
"383 660 CURVE SMOOTH",
"418 698 OFFCURVE",
"449 653 OFFCURVE",
"443 615 CURVE",
"417 560 OFFCURVE",
"212 415 OFFCURVE",
"105 115 CURVE SMOOTH",
"94 85 OFFCURVE",
"88 84 OFFCURVE",
"60 80 CURVE SMOOTH",
"25 76 OFFCURVE",
"27 134 OFFCURVE",
"27 134 CURVE"
);
},
{
closed = 1;
nodes = (
"439 -22 OFFCURVE",
"271 53 OFFCURVE",
"196 51 CURVE SMOOTH",
"110 49 OFFCURVE",
"55 -12 OFFCURVE",
"28 0 CURVE SMOOTH",
"16 5 OFFCURVE",
"17 126 OFFCURVE",
"29 137 CURVE",
"189 285 OFFCURVE",
"273 164 OFFCURVE",
"439 149 CURVE SMOOTH",
"471 146 OFFCURVE",
"444 55 OFFCURVE",
"441 16 CURVE SMOOTH"
);
}
);
width = 474;
}
);
leftMetricsKey = "=A";
rightMetricsKey = "=A";
unicode = 005A;
},
{
glyphname = a;
lastChange = "2023-06-27 23:00:52 +0000";
layers = (
{
guideLines = (
{
angle = 90;
position = "{23, 0}";
},
{
angle = 90;
position = "{522, 0}";
}
);
layerId = "506641A2-9742-4A10-B0B8-C0DC56E2C3BB";
paths = (
{
closed = 1;
nodes = (
"94 333 OFFCURVE",
"102 558 OFFCURVE",
"156 651 CURVE",
"273 851 OFFCURVE",
"461 727 OFFCURVE",
"472 472 CURVE SMOOTH",
"474 427 OFFCURVE",
"462 295 OFFCURVE",
"458 162 CURVE",
"457 136 OFFCURVE",
"324 4 OFFCURVE",
"321 78 CURVE SMOOTH",
"315 223 OFFCURVE",
"387 590 OFFCURVE",
"271 572 CURVE SMOOTH",
"159 555 OFFCURVE",
"164 247 OFFCURVE",
"164 247 CURVE",
"167 188 OFFCURVE",
"169 203 OFFCURVE",
"169 151 CURVE",
"169 134 OFFCURVE",
"162 108 OFFCURVE",
"144 81 CURVE SMOOTH",
"125 52 OFFCURVE",
"94 43 OFFCURVE",
"93 78 CURVE",
"93 117 OFFCURVE",
"94 142 OFFCURVE",
"94 180 CURVE SMOOTH"
);
},
{
closed = 1;
nodes = (
"146 447 OFFCURVE",
"200 483 OFFCURVE",
"270 490 CURVE SMOOTH",
"334 496 OFFCURVE",
"373 493 OFFCURVE",
"443 430 CURVE SMOOTH",
"476 400 OFFCURVE",
"491 253 OFFCURVE",
"413 253 CURVE",
"361 269 OFFCURVE",
"367 316 OFFCURVE",
"245 311 CURVE SMOOTH",
"156 307 OFFCURVE",
"146 246 OFFCURVE",
"112 244 CURVE SMOOTH",
"69 241 OFFCURVE",
"79 406 OFFCURVE",
"103 419 CURVE"
);
},
{
closed = 1;
nodes = (
"75 219 OFFCURVE",
"164 228 OFFCURVE",
"227 150 CURVE",
"245 132 OFFCURVE",
"223 -13 OFFCURVE",
"196 -1 CURVE SMOOTH",
"95 42 OFFCURVE",
"75 1 OFFCURVE",
"50 -1 CURVE SMOOTH",
"14 -4 OFFCURVE",
"15 119 OFFCURVE",
"30 144 CURVE SMOOTH"
);
},
{
closed = 1;
nodes = (
"332 219 OFFCURVE",
"421 228 OFFCURVE",
"484 150 CURVE",
"502 132 OFFCURVE",
"480 -13 OFFCURVE",
"453 -1 CURVE SMOOTH",
"352 42 OFFCURVE",
"332 1 OFFCURVE",
"307 -1 CURVE SMOOTH",
"271 -4 OFFCURVE",
"272 119 OFFCURVE",
"287 144 CURVE SMOOTH"
);
}
);
width = 511;
}
);
leftKerningGroup = A;
leftMetricsKey = "=A";
rightMetricsKey = "=A";
unicode = 0061;
},
{
glyphname = b;
lastChange = "2023-06-27 22:15:01 +0000";
layers = (
{
layerId = "506641A2-9742-4A10-B0B8-C0DC56E2C3BB";
paths = (
{
closed = 1;
nodes = (
"43 346 OFFCURVE",
"44 564 OFFCURVE",
"98 656 CURVE SMOOTH",
"215 857 OFFCURVE",
"369 693 OFFCURVE",
"370 566 CURVE SMOOTH",
"371 499 OFFCURVE",
"347 439 OFFCURVE",
"286 433 CURVE SMOOTH",
"194 425 OFFCURVE",
"307 562 OFFCURVE",
"209 586 CURVE SMOOTH",
"101 613 OFFCURVE",
"109 249 OFFCURVE",
"109 249 CURVE SMOOTH",
"109 183 OFFCURVE",
"155 77 OFFCURVE",
"96 77 CURVE",
"32 72 OFFCURVE",
"42 148 OFFCURVE",
"42 193 CURVE SMOOTH"
);
},
{
closed = 1;
nodes = (
"97 461 OFFCURVE",
"174 528 OFFCURVE",
"237 539 CURVE SMOOTH",
"316 552 OFFCURVE",
"361 552 OFFCURVE",
"429 488 CURVE SMOOTH",
"461 457 OFFCURVE",
"519 271 OFFCURVE",
"441 271 CURVE",
"389 287 OFFCURVE",
"394 387 OFFCURVE",
"266 373 CURVE SMOOTH",
"177 363 OFFCURVE",
"102 250 OFFCURVE",
"68 236 CURVE",
"40 224 OFFCURVE",
"30 420 OFFCURVE",
"54 433 CURVE"
);
},
{
closed = 1;
nodes = (
"33 97 OFFCURVE",
"31 243 OFFCURVE",
"56 288 CURVE",
"73 310 OFFCURVE",
"108 307 OFFCURVE",
"109 273 CURVE SMOOTH",
"113 185 OFFCURVE",
"114 141 OFFCURVE",
"247 157 CURVE SMOOTH",
"349 169 OFFCURVE",
"432 253 OFFCURVE",
"412 287 CURVE SMOOTH",
"354 386 OFFCURVE",
"387 421 OFFCURVE",
"429 421 CURVE",
"506 421 OFFCURVE",
"497 211 OFFCURVE",
"420 125 CURVE SMOOTH",
"274 -37 OFFCURVE",
"171 -17 OFFCURVE",
"77 60 CURVE SMOOTH"
);
}
);
width = 503;
}
);
leftMetricsKey = "=B";
rightMetricsKey = "=B";
unicode = 0062;
},
{
glyphname = c;
lastChange = "2023-06-27 22:15:14 +0000";
layers = (
{
layerId = "506641A2-9742-4A10-B0B8-C0DC56E2C3BB";
paths = (
{
closed = 1;
nodes = (
"-13 408 OFFCURVE",
"110 596 OFFCURVE",
"230 652 CURVE SMOOTH",
"278 674 OFFCURVE",
"327 628 OFFCURVE",
"264 568 CURVE SMOOTH",
"250 555 OFFCURVE",
"218 537 OFFCURVE",
"209 549 CURVE SMOOTH",
"173 596 OFFCURVE",
"87 335 OFFCURVE",
"169 240 CURVE SMOOTH",
"233 166 OFFCURVE",
"277 192 OFFCURVE",
"314 212 CURVE SMOOTH",
"354 234 OFFCURVE",
"380 230 OFFCURVE",
"389 214 CURVE SMOOTH",
"421 162 OFFCURVE",
"390 80 OFFCURVE",
"351 44 CURVE SMOOTH",
"304 0 OFFCURVE",
"219 -19 OFFCURVE",
"145 30 CURVE SMOOTH",
"99 60 OFFCURVE",
"43 122 OFFCURVE",
"28 199 CURVE SMOOTH"
);
},
{
closed = 1;
nodes = (
"332 431 OFFCURVE",
"209 479 OFFCURVE",
"196 597 CURVE SMOOTH",
"193 626 OFFCURVE",
"281 776 OFFCURVE",
"292 744 CURVE SMOOTH",
"335 617 OFFCURVE",
"361 602 OFFCURVE",
"387 587 CURVE SMOOTH",
"412 572 OFFCURVE",
"394 507 OFFCURVE",
"373 481 CURVE SMOOTH"
);
}
);
width = 422;
}
);
leftMetricsKey = "=C";
rightMetricsKey = "=C";
unicode = 0063;
},
{
glyphname = d;
lastChange = "2023-06-27 22:41:09 +0000";
layers = (
{
layerId = "506641A2-9742-4A10-B0B8-C0DC56E2C3BB";
paths = (
{
closed = 1;
nodes = (
"23 125 OFFCURVE",
"45 218 OFFCURVE",
"70 263 CURVE",
"111 341 OFFCURVE",
"116 140 OFFCURVE",
"278 172 CURVE SMOOTH",
"329 182 OFFCURVE",
"360 202 OFFCURVE",
"372 229 CURVE SMOOTH",
"379 246 OFFCURVE",
"377 269 OFFCURVE",
"373 286 CURVE",
"364 412 OFFCURVE",
"183 507 OFFCURVE",
"116 556 CURVE SMOOTH",
"66 592 OFFCURVE",
"74 633 OFFCURVE",
"80 673 CURVE SMOOTH",
"86 712 OFFCURVE",
"88 751 OFFCURVE",
"102 751 CURVE SMOOTH",
"133 751 OFFCURVE",
"305 673 OFFCURVE",
"403 556 CURVE SMOOTH",
"466 480 OFFCURVE",
"485 385 OFFCURVE",
"448 287 CURVE",
"430 239 OFFCURVE",
"333 2 OFFCURVE",
"214 0 CURVE",
"167 -1 OFFCURVE",
"124 1 OFFCURVE",
"59 81 CURVE SMOOTH"
);
},
{
closed = 1;
nodes = (
"176 630 LINE",
"187 623 OFFCURVE",
"184 595 OFFCURVE",
"184 582 CURVE SMOOTH",
"180 420 OFFCURVE",
"184 305 OFFCURVE",
"184 143 CURVE",
"184 126 OFFCURVE",
"177 82 OFFCURVE",
"159 55 CURVE SMOOTH",
"140 26 OFFCURVE",
"109 32 OFFCURVE",
"108 67 CURVE",
"108 246 OFFCURVE",
"87 482 OFFCURVE",
"91 649 CURVE SMOOTH",
"91 664 OFFCURVE",
"95 688 OFFCURVE",
"106 681 CURVE"
);
}
);
width = 487;
}
);
leftKerningGroup = D;
leftMetricsKey = "=D";
rightKerningGroup = D;
rightMetricsKey = "=D";
unicode = 0064;
},
{
glyphname = e;
lastChange = "2023-06-27 22:35:00 +0000";
layers = (
{
layerId = "506641A2-9742-4A10-B0B8-C0DC56E2C3BB";
paths = (
{
closed = 1;
nodes = (
"139 121 OFFCURVE",
"132 101 OFFCURVE",
"114 74 CURVE SMOOTH",
"95 45 OFFCURVE",
"52 93 OFFCURVE",
"51 128 CURVE",
"48 196 LINE",
"48 258 OFFCURVE",
"54 498 OFFCURVE",
"111 635 CURVE SMOOTH",
"121 659 OFFCURVE",
"182 603 OFFCURVE",
"174 585 CURVE SMOOTH",
"135 500 OFFCURVE",
"139 338 OFFCURVE",
"139 142 CURVE SMOOTH"
);
},
{
closed = 1;
nodes = (
"56 479 OFFCURVE",
"126 477 OFFCURVE",
"196 478 CURVE SMOOTH",
"248 479 OFFCURVE",
"328 478 OFFCURVE",
"362 465 CURVE SMOOTH",
"370 462 OFFCURVE",
"369 329 OFFCURVE",
"351 328 CURVE",
"259 340 OFFCURVE",
"151 340 OFFCURVE",
"84 336 CURVE SMOOTH",
"41 333 OFFCURVE",
"35 462 OFFCURVE",
"43 472 CURVE"
);
},
{
closed = 1;
nodes = (
"126 256 OFFCURVE",
"230 333 OFFCURVE",
"353 217 CURVE",
"365 205 OFFCURVE",
"372 64 OFFCURVE",
"343 82 CURVE SMOOTH",
"146 205 OFFCURVE",
"128 4 OFFCURVE",
"108 0 CURVE SMOOTH",
"66 -8 OFFCURVE",
"40 135 OFFCURVE",
"58 163 CURVE"
);
},
{
closed = 1;
nodes = (
"83 759 OFFCURVE",
"132 726 OFFCURVE",
"201 716 CURVE SMOOTH",
"293 703 OFFCURVE",
"345 723 OFFCURVE",
"380 711 CURVE SMOOTH",
"395 706 OFFCURVE",
"392 579 OFFCURVE",
"374 578 CURVE",
"298 550 OFFCURVE",
"190 546 OFFCURVE",
"84 606 CURVE",
"46 618 OFFCURVE",
"60 737 OFFCURVE",
"69 746 CURVE SMOOTH"
);
}
);
width = 430;
}
);
leftKerningGroup = E;
leftMetricsKey = "=E";
rightKerningGroup = E;
rightMetricsKey = "=E";
unicode = 0065;
},
{
glyphname = f;
lastChange = "2023-06-27 22:38:24 +0000";
layers = (
{
layerId = "506641A2-9742-4A10-B0B8-C0DC56E2C3BB";
paths = (
{
closed = 1;
nodes = (
"182 75 OFFCURVE",
"175 55 OFFCURVE",
"157 28 CURVE SMOOTH",
"138 -1 OFFCURVE",
"119 35 OFFCURVE",
"118 70 CURVE",
"111 239 OFFCURVE",
"88 466 OFFCURVE",
"86 635 CURVE SMOOTH",
"86 661 OFFCURVE",
"149 647 OFFCURVE",
"151 627 CURVE SMOOTH",
"160 536 OFFCURVE",
"182 292 OFFCURVE",
"182 96 CURVE SMOOTH"
);
},
{
closed = 1;
nodes = (
"106 419 OFFCURVE",
"178 409 OFFCURVE",
"250 410 CURVE",
"303 411 OFFCURVE",
"322 421 OFFCURVE",
"352 401 CURVE SMOOTH",
"371 388 OFFCURVE",
"369 270 OFFCURVE",
"339 272 CURVE",
"193 279 OFFCURVE",
"213 272 OFFCURVE",
"134 272 CURVE SMOOTH",
"90 272 OFFCURVE",
"84 396 OFFCURVE",
"93 405 CURVE SMOOTH"
);
},
{
closed = 1;
nodes = (
"106 782 OFFCURVE",
"167 653 OFFCURVE",
"283 652 CURVE SMOOTH",
"437 651 OFFCURVE",
"445 751 OFFCURVE",
"486 748 CURVE SMOOTH",
"511 746 OFFCURVE",
"494 593 OFFCURVE",
"477 575 CURVE SMOOTH",
"439 533 OFFCURVE",
"376 500 OFFCURVE",
"278 500 CURVE",
"187 500 OFFCURVE",
"134 558 OFFCURVE",
"82 587 CURVE SMOOTH",
"46 608 OFFCURVE",
"51 745 OFFCURVE",
"59 755 CURVE"
);
},
{
closed = 1;
nodes = (
"95 191 OFFCURVE",
"182 198 OFFCURVE",
"247 132 CURVE SMOOTH",
"263 115 OFFCURVE",
"243 -9 OFFCURVE",
"216 1 CURVE SMOOTH",
"115 38 OFFCURVE",
"95 3 OFFCURVE",
"70 1 CURVE SMOOTH",
"34 -1 OFFCURVE",
"35 105 OFFCURVE",
"50 126 CURVE SMOOTH"
);
}
);
width = 539;
}
);
leftKerningGroup = F;
leftMetricsKey = "=F";
rightKerningGroup = F;
rightMetricsKey = "=F";
unicode = 0066;
},
{
glyphname = g;
lastChange = "2023-06-27 22:16:48 +0000";
layers = (
{
layerId = "506641A2-9742-4A10-B0B8-C0DC56E2C3BB";
paths = (
{
closed = 1;
nodes = (
"-13 408 OFFCURVE",
"110 596 OFFCURVE",
"230 652 CURVE SMOOTH",
"278 674 OFFCURVE",
"327 628 OFFCURVE",
"264 568 CURVE SMOOTH",
"250 555 OFFCURVE",
"218 537 OFFCURVE",
"209 549 CURVE SMOOTH",
"173 596 OFFCURVE",
"87 335 OFFCURVE",
"169 240 CURVE SMOOTH",
"233 166 OFFCURVE",
"277 192 OFFCURVE",
"314 212 CURVE SMOOTH",
"354 234 OFFCURVE",
"380 230 OFFCURVE",
"389 214 CURVE SMOOTH",
"421 162 OFFCURVE",
"390 80 OFFCURVE",
"351 44 CURVE SMOOTH",
"304 0 OFFCURVE",
"219 -19 OFFCURVE",
"145 30 CURVE SMOOTH",
"99 60 OFFCURVE",
"43 122 OFFCURVE",
"28 199 CURVE SMOOTH"
);
},
{
closed = 1;
nodes = (
"389 232 OFFCURVE",
"372 207 OFFCURVE",
"461 167 CURVE",
"498 159 OFFCURVE",
"510 153 OFFCURVE",
"499 110 CURVE SMOOTH",
"477 26 LINE",
"465 -18 OFFCURVE",
"389 -2 OFFCURVE",
"338 57 CURVE SMOOTH",
"294 107 OFFCURVE",
"307 248 OFFCURVE",
"329 324 CURVE SMOOTH",
"337 351 OFFCURVE",
"347 358 OFFCURVE",
"357 328 CURVE"
);
},
{
closed = 1;
nodes = (
"332 431 OFFCURVE",
"209 479 OFFCURVE",
"196 597 CURVE SMOOTH",
"193 626 OFFCURVE",
"281 776 OFFCURVE",
"292 744 CURVE SMOOTH",
"335 617 OFFCURVE",
"361 602 OFFCURVE",
"387 587 CURVE SMOOTH",
"412 572 OFFCURVE",
"394 507 OFFCURVE",
"373 481 CURVE SMOOTH"
);
},
{
closed = 1;
nodes = (
"388 235 OFFCURVE",
"296 226 OFFCURVE",
"232 295 CURVE",
"213 310 OFFCURVE",
"236 436 OFFCURVE",
"264 426 CURVE SMOOTH",
"369 387 OFFCURVE",
"389 425 OFFCURVE",
"415 426 CURVE SMOOTH",
"452 427 OFFCURVE",
"450 321 OFFCURVE",
"435 300 CURVE SMOOTH"
);
}
);
width = 523;
}
);
leftMetricsKey = "=G";
rightMetricsKey = "=G";
unicode = 0067;
},
{
glyphname = h;
lastChange = "2023-06-27 22:16:58 +0000";
layers = (
{
layerId = "506641A2-9742-4A10-B0B8-C0DC56E2C3BB";
paths = (
{
closed = 1;
nodes = (
"113 32 OFFCURVE",
"144 41 OFFCURVE",
"163 70 CURVE SMOOTH",
"181 97 OFFCURVE",
"188 123 OFFCURVE",
"188 140 CURVE SMOOTH",
"188 192 OFFCURVE",
"183 216 OFFCURVE",
"183 274 CURVE SMOOTH",
"183 276 LINE SMOOTH",
"183 275 OFFCURVE",
"193 660 OFFCURVE",
"172 690 CURVE",
"152 718 OFFCURVE",
"96 676 OFFCURVE",
"94 633 CURVE SMOOTH",
"81 360 OFFCURVE",
"107 306 OFFCURVE",
"112 67 CURVE SMOOTH"
);
},
{
closed = 1;
nodes = (
"413 32 OFFCURVE",
"444 41 OFFCURVE",
"463 70 CURVE SMOOTH",
"481 97 OFFCURVE",
"488 123 OFFCURVE",
"488 140 CURVE SMOOTH",
"488 192 OFFCURVE",
"494 165 OFFCURVE",
"491 224 CURVE",
"491 224 OFFCURVE",
"501 662 OFFCURVE",
"480 692 CURVE SMOOTH",
"460 720 OFFCURVE",
"401 676 OFFCURVE",
"399 633 CURVE SMOOTH",
"386 360 OFFCURVE",
"407 306 OFFCURVE",
"412 67 CURVE SMOOTH"
);
},
{
closed = 1;
nodes = (
"132 474 OFFCURVE",
"124 313 OFFCURVE",
"166 321 CURVE SMOOTH",
"186 325 OFFCURVE",
"340 338 OFFCURVE",
"431 321 CURVE SMOOTH",
"465 315 OFFCURVE",
"454 445 OFFCURVE",
"453 462 CURVE SMOOTH",
"449 531 OFFCURVE",
"193 525 OFFCURVE",
"158 495 CURVE SMOOTH"
);
},
{
closed = 1;
nodes = (
"336 119 OFFCURVE",
"335 -4 OFFCURVE",
"371 -1 CURVE SMOOTH",
"396 1 OFFCURVE",
"416 42 OFFCURVE",
"517 -1 CURVE SMOOTH",
"544 -13 OFFCURVE",
"566 132 OFFCURVE",
"548 150 CURVE",
"485 228 OFFCURVE",
"396 219 OFFCURVE",
"351 144 CURVE SMOOTH"
);
},
{
closed = 1;
nodes = (
"563 628 OFFCURVE",
"564 751 OFFCURVE",
"528 748 CURVE SMOOTH",
"503 746 OFFCURVE",
"483 705 OFFCURVE",
"382 748 CURVE",
"355 760 OFFCURVE",
"333 615 OFFCURVE",
"351 597 CURVE",
"414 519 OFFCURVE",
"503 528 OFFCURVE",
"548 603 CURVE SMOOTH"
);
},
{
closed = 1;
nodes = (
"37 119 OFFCURVE",
"36 -4 OFFCURVE",
"72 -1 CURVE SMOOTH",
"97 1 OFFCURVE",
"117 42 OFFCURVE",
"218 -1 CURVE SMOOTH",
"245 -13 OFFCURVE",
"267 132 OFFCURVE",
"249 150 CURVE",
"186 228 OFFCURVE",
"97 219 OFFCURVE",
"52 144 CURVE SMOOTH"
);
},
{
closed = 1;
nodes = (
"259 628 OFFCURVE",
"260 751 OFFCURVE",
"224 748 CURVE SMOOTH",
"199 746 OFFCURVE",
"179 705 OFFCURVE",
"78 748 CURVE",
"51 760 OFFCURVE",
"29 615 OFFCURVE",
"47 597 CURVE",
"110 519 OFFCURVE",
"199 528 OFFCURVE",
"244 603 CURVE SMOOTH"
);
}
);
width = 598;
}
);
leftMetricsKey = "=H";
rightMetricsKey = "=H";
unicode = 0068;
},
{
glyphname = i;
lastChange = "2023-06-27 22:17:15 +0000";
layers = (
{
layerId = "506641A2-9742-4A10-B0B8-C0DC56E2C3BB";
paths = (
{
closed = 1;
nodes = (
"149 643 LINE SMOOTH",
"115 586 OFFCURVE",
"114 182 OFFCURVE",
"118 37 CURVE SMOOTH",
"120 -37 OFFCURVE",
"215 95 OFFCURVE",
"216 121 CURVE",
"222 264 OFFCURVE",
"218 404 OFFCURVE",
"221 449 CURVE SMOOTH",
"237 716 OFFCURVE",
"236 769 OFFCURVE",
"187 707 CURVE"
);
},
{
closed = 1;
nodes = (
"34 133 OFFCURVE",
"33 -3 OFFCURVE",
"76 0 CURVE SMOOTH",
"106 2 OFFCURVE",
"129 48 OFFCURVE",
"251 0 CURVE SMOOTH",
"283 -13 OFFCURVE",
"309 147 OFFCURVE",
"287 167 CURVE",
"213 253 OFFCURVE",
"106 243 OFFCURVE",
"52 161 CURVE SMOOTH"
);
},
{
closed = 1;
nodes = (
"329 617 OFFCURVE",
"330 753 OFFCURVE",
"287 750 CURVE SMOOTH",
"257 748 OFFCURVE",
"234 702 OFFCURVE",
"112 750 CURVE SMOOTH",
"80 763 OFFCURVE",
"54 603 OFFCURVE",
"76 583 CURVE",
"150 497 OFFCURVE",
"257 507 OFFCURVE",
"311 589 CURVE SMOOTH"
);
}
);
width = 363;
}
);
leftMetricsKey = "=I";
rightMetricsKey = "=I";
unicode = 0069;
},
{
glyphname = j;
lastChange = "2023-06-27 22:17:25 +0000";
layers = (
{
layerId = "506641A2-9742-4A10-B0B8-C0DC56E2C3BB";
paths = (
{
closed = 1;
nodes = (
"28 100 OFFCURVE",
"34 186 OFFCURVE",
"59 231 CURVE",
"76 253 OFFCURVE",
"182 415 OFFCURVE",
"204 397 CURVE SMOOTH",
"228 377 OFFCURVE",
"161 317 OFFCURVE",
"170 222 CURVE",
"176 157 OFFCURVE",
"262 82 OFFCURVE",
"324 151 CURVE",
"396 288 OFFCURVE",
"529 285 OFFCURVE",
"417 138 CURVE SMOOTH",
"287 -33 OFFCURVE",
"168 -26 OFFCURVE",
"78 55 CURVE SMOOTH"
);
},
{
closed = 1;
nodes = (
"202 765 OFFCURVE",
"198 696 OFFCURVE",
"302 680 CURVE SMOOTH",
"394 666 OFFCURVE",
"388 689 OFFCURVE",
"441 724 CURVE SMOOTH",
"469 742 OFFCURVE",
"448 592 OFFCURVE",
"433 582 CURVE SMOOTH",
"304 496 OFFCURVE",
"231 501 OFFCURVE",
"149 592 CURVE SMOOTH",
"120 624 OFFCURVE",
"158 741 OFFCURVE",
"169 747 CURVE SMOOTH"
);
},
{
closed = 1;
nodes = (
"413 705 LINE",
"499 808 OFFCURVE",
"483 735 OFFCURVE",
"461 466 CURVE SMOOTH",
"457 421 OFFCURVE",
"465 355 OFFCURVE",
"461 222 CURVE",
"456 161 OFFCURVE",
"318 65 OFFCURVE",
"319 139 CURVE SMOOTH",
"319 150 OFFCURVE",
"331 153 OFFCURVE",
"330 173 CURVE SMOOTH",
"322 332 OFFCURVE",
"327 613 OFFCURVE",
"370 660 CURVE"
);
}
);
width = 518;
}
);
leftMetricsKey = "=J";
rightMetricsKey = "=J";
unicode = 006A;
},
{
glyphname = k;
lastChange = "2023-06-27 22:17:44 +0000";
layers = (
{
layerId = "506641A2-9742-4A10-B0B8-C0DC56E2C3BB";
paths = (
{
closed = 1;
nodes = (
"236 547 OFFCURVE",
"275 331 OFFCURVE",
"443 130 CURVE SMOOTH",
"465 104 OFFCURVE",
"363 -15 OFFCURVE",
"343 0 CURVE SMOOTH",
"271 54 OFFCURVE",
"188 238 OFFCURVE",
"116 351 CURVE SMOOTH",
"93 387 OFFCURVE",
"178 455 OFFCURVE",
"184 465 CURVE SMOOTH"
);
},
{
closed = 1;
nodes = (
"122 695 LINE SMOOTH",
"222 785 OFFCURVE",
"205 783 OFFCURVE",
"176 501 CURVE SMOOTH",
"171 456 OFFCURVE",
"178 243 OFFCURVE",
"174 110 CURVE",
"170 63 OFFCURVE",
"50 -80 OFFCURVE",
"43 61 CURVE SMOOTH",
"35 220 OFFCURVE",
"40 613 OFFCURVE",
"83 660 CURVE"
);
},
{
closed = 1;
nodes = (
"220 510 OFFCURVE",
"256 575 OFFCURVE",
"376 705 CURVE",
"384 712 OFFCURVE",
"428 721 OFFCURVE",
"425 700 CURVE",
"420 671 OFFCURVE",
"227 438 OFFCURVE",
"177 381 CURVE SMOOTH",
"148 348 OFFCURVE",
"103 374 OFFCURVE",
"127 402 CURVE SMOOTH"
);
},
{
closed = 1;
nodes = (
"416 532 OFFCURVE",
"327 523 OFFCURVE",
"264 601 CURVE",
"246 619 OFFCURVE",
"268 764 OFFCURVE",
"295 752 CURVE SMOOTH",
"396 709 OFFCURVE",
"416 750 OFFCURVE",
"441 752 CURVE SMOOTH",
"477 755 OFFCURVE",
"476 632 OFFCURVE",
"461 607 CURVE SMOOTH"
);
}
);
width = 511;
}
);
leftMetricsKey = "=K";
rightMetricsKey = "=K";
unicode = 006B;
},
{
glyphname = l;
lastChange = "2023-06-27 22:41:57 +0000";
layers = (
{
layerId = "506641A2-9742-4A10-B0B8-C0DC56E2C3BB";
paths = (
{
closed = 1;
nodes = (
"74 73 OFFCURVE",
"106 79 OFFCURVE",
"127 107 CURVE SMOOTH",
"147 132 OFFCURVE",
"157 158 OFFCURVE",
"158 175 CURVE SMOOTH",
"174 711 LINE SMOOTH",
"175 746 OFFCURVE",
"107 704 OFFCURVE",
"104 662 CURVE SMOOTH",
"83 379 OFFCURVE",
"89 347 OFFCURVE",
"76 108 CURVE SMOOTH"
);
},
{
closed = 1;
nodes = (
"259 632 OFFCURVE",
"260 755 OFFCURVE",
"224 752 CURVE SMOOTH",
"199 750 OFFCURVE",
"179 709 OFFCURVE",
"78 752 CURVE SMOOTH",
"51 764 OFFCURVE",
"29 619 OFFCURVE",
"47 601 CURVE",
"110 523 OFFCURVE",
"199 532 OFFCURVE",
"244 607 CURVE SMOOTH"
);
},
{
closed = 1;
nodes = (
"507 3 OFFCURVE",
"516 144 OFFCURVE",
"472 184 CURVE SMOOTH",
"373 274 OFFCURVE",
"257 321 OFFCURVE",
"101 176 CURVE",
"73 161 OFFCURVE",
"57 -12 OFFCURVE",
"91 3 CURVE",
"151 16 OFFCURVE",
"164 105 OFFCURVE",
"288 108 CURVE",
"425 111 OFFCURVE",
"440 -5 OFFCURVE",
"492 1 CURVE SMOOTH"
);
}
);
width = 544;
}
);
leftKerningGroup = L;
leftMetricsKey = "=L";
rightKerningGroup = L;
rightMetricsKey = "=L";
unicode = 006C;
},
{
glyphname = m;
lastChange = "2023-06-27 22:37:00 +0000";
layers = (
{
layerId = "506641A2-9742-4A10-B0B8-C0DC56E2C3BB";
paths = (
{
closed = 1;
nodes = (
"466 810 OFFCURVE",
"433 585 OFFCURVE",
"443 539 CURVE SMOOTH",
"455 482 OFFCURVE",
"521 26 OFFCURVE",
"648 1 CURVE SMOOTH",
"683 -6 OFFCURVE",
"723 123 OFFCURVE",
"698 155 CURVE SMOOTH",
"608 271 OFFCURVE",
"559 552 OFFCURVE",
"494 732 CURVE SMOOTH"
);
},
{
closed = 1;
nodes = (
"493 750 OFFCURVE",
"484 757 OFFCURVE",
"463 729 CURVE SMOOTH",
"443 704 OFFCURVE",
"431 678 OFFCURVE",
"432 661 CURVE SMOOTH",
"443 305 OFFCURVE",
"349 259 OFFCURVE",
"349 199 CURVE",
"367 169 OFFCURVE",
"400 188 OFFCURVE",
"419 248 CURVE SMOOTH",
"494 484 OFFCURVE",
"478 476 OFFCURVE",
"491 715 CURVE SMOOTH"
);
},
{
closed = 1;
nodes = (
"263 813 OFFCURVE",
"212 591 OFFCURVE",
"218 544 CURVE SMOOTH",
"225 487 OFFCURVE",
"255 35 OFFCURVE",
"379 0 CURVE SMOOTH",
"414 -10 OFFCURVE",
"463 107 OFFCURVE",
"441 141 CURVE SMOOTH",
"360 264 OFFCURVE",
"334 548 OFFCURVE",
"284 733 CURVE SMOOTH"
);
},
{
closed = 1;
nodes = (
"285 751 OFFCURVE",
"276 758 OFFCURVE",
"253 732 CURVE SMOOTH",
"231 709 OFFCURVE",
"218 684 OFFCURVE",
"217 667 CURVE SMOOTH",
"200 311 OFFCURVE",
"46 77 OFFCURVE",
"41 17 CURVE",
"56 -14 OFFCURVE",
"98 21 OFFCURVE",
"114 60 CURVE SMOOTH",
"207 289 OFFCURVE",
"248 479 OFFCURVE",
"280 716 CURVE SMOOTH"
);
},
{
closed = 1;
nodes = (
"15 119 OFFCURVE",
"14 -4 OFFCURVE",
"50 -1 CURVE SMOOTH",
"75 1 OFFCURVE",
"95 42 OFFCURVE",
"196 -1 CURVE SMOOTH",
"223 -13 OFFCURVE",
"245 132 OFFCURVE",
"227 150 CURVE",
"164 228 OFFCURVE",
"75 219 OFFCURVE",
"30 144 CURVE SMOOTH"
);
}
);
width = 726;
}
);
leftKerningGroup = M;
leftMetricsKey = "=M";
rightKerningGroup = M;
rightMetricsKey = "=M";
unicode = 006D;
},
{
glyphname = n;
lastChange = "2023-06-27 22:58:19 +0000";
layers = (
{
guideLines = (
{
angle = 90;
position = "{581, 0}";
}
);
layerId = "506641A2-9742-4A10-B0B8-C0DC56E2C3BB";
paths = (
{
closed = 1;
nodes = (
"106 10 OFFCURVE",
"137 19 OFFCURVE",
"156 48 CURVE SMOOTH",
"174 75 OFFCURVE",
"181 101 OFFCURVE",
"181 118 CURVE SMOOTH",
"181 170 OFFCURVE",
"177 255 OFFCURVE",
"177 313 CURVE",
"177 312 OFFCURVE",
"186 711 OFFCURVE",
"165 741 CURVE SMOOTH",
"145 769 OFFCURVE",
"89 727 OFFCURVE",
"87 684 CURVE SMOOTH",
"74 411 OFFCURVE",
"100 284 OFFCURVE",
"105 45 CURVE SMOOTH"
);
},
{
closed = 1;
nodes = (
"420 -9 OFFCURVE",
"493 -13 OFFCURVE",
"493 42 CURVE SMOOTH",
"493 94 OFFCURVE",
"499 215 OFFCURVE",
"496 274 CURVE",
"496 274 OFFCURVE",
"506 689 OFFCURVE",
"485 719 CURVE SMOOTH",
"465 747 OFFCURVE",
"406 703 OFFCURVE",
"404 660 CURVE SMOOTH",
"391 387 OFFCURVE",
"394 289 OFFCURVE",
"417 26 CURVE SMOOTH"
);
},
{
closed = 1;
nodes = (
"469 -47 OFFCURVE",
"476 178 OFFCURVE",
"466 224 CURVE SMOOTH",
"454 281 OFFCURVE",
"186 711 OFFCURVE",
"165 741 CURVE SMOOTH",
"145 769 OFFCURVE",
"81 653 OFFCURVE",
"87 610 CURVE SMOOTH",
"108 469 OFFCURVE",
"311 151 OFFCURVE",
"417 18 CURVE SMOOTH"
);
},
{
closed = 1;
nodes = (
"35 119 OFFCURVE",
"34 -4 OFFCURVE",
"70 -1 CURVE SMOOTH",
"95 1 OFFCURVE",
"115 42 OFFCURVE",
"216 -1 CURVE SMOOTH",
"243 -13 OFFCURVE",
"265 132 OFFCURVE",
"247 150 CURVE",
"184 228 OFFCURVE",
"95 219 OFFCURVE",
"50 144 CURVE SMOOTH"
);
},
{
closed = 1;
nodes = (
"561 628 OFFCURVE",
"562 751 OFFCURVE",
"526 748 CURVE SMOOTH",
"501 746 OFFCURVE",
"481 705 OFFCURVE",
"380 748 CURVE SMOOTH",
"353 760 OFFCURVE",
"331 615 OFFCURVE",
"349 597 CURVE",
"412 519 OFFCURVE",
"501 528 OFFCURVE",
"546 603 CURVE SMOOTH"
);
}
);
width = 596;
}
);
leftKerningGroup = N;
leftMetricsKey = "=N";
rightKerningGroup = N;
rightMetricsKey = "=N";
unicode = 006E;
},
{
glyphname = o;
lastChange = "2023-06-27 22:57:37 +0000";
layers = (
{
layerId = "506641A2-9742-4A10-B0B8-C0DC56E2C3BB";
paths = (
{
closed = 1;
nodes = (
"-22 350 OFFCURVE",
"72 602 OFFCURVE",
"156 647 CURVE SMOOTH",
"173 656 OFFCURVE",
"193 588 OFFCURVE",
"180 574 CURVE SMOOTH",
"165 558 OFFCURVE",
"165 557 OFFCURVE",
"150 539 CURVE SMOOTH",
"94 472 OFFCURVE",
"91 348 OFFCURVE",
"150 266 CURVE SMOOTH",
"205 190 OFFCURVE",
"269 173 OFFCURVE",
"299 167 CURVE",
"359 155 OFFCURVE",
"361 112 OFFCURVE",
"327 71 CURVE SMOOTH",
"292 28 OFFCURVE",
"251 -14 OFFCURVE",
"193 6 CURVE",
"143 28 OFFCURVE",
"65 93 OFFCURVE",
"40 168 CURVE SMOOTH"
);
},
{
closed = 1;
nodes = (
"463 288 OFFCURVE",
"458 181 OFFCURVE",
"387 107 CURVE",
"356 74 OFFCURVE",
"314 42 OFFCURVE",
"288 54 CURVE SMOOTH",
"261 66 OFFCURVE",
"257 138 OFFCURVE",
"264 156 CURVE SMOOTH",
"271 173 OFFCURVE",
"312 162 OFFCURVE",
"332 175 CURVE SMOOTH",
"365 196 OFFCURVE",
"323 333 OFFCURVE",
"264 415 CURVE SMOOTH",
"209 491 OFFCURVE",
"188 554 OFFCURVE",
"158 560 CURVE",
"100 595 OFFCURVE",
"130 703 OFFCURVE",
"164 744 CURVE SMOOTH",
"206 796 OFFCURVE",
"396 486 OFFCURVE",
"416 428 CURVE SMOOTH"
);
}
);
width = 467;
}
);
leftKerningGroup = O;
leftMetricsKey = "=O";
rightKerningGroup = O;
rightMetricsKey = "=O";
unicode = 006F;
},
{
glyphname = p;
lastChange = "2023-06-27 22:18:40 +0000";
layers = (
{
layerId = "506641A2-9742-4A10-B0B8-C0DC56E2C3BB";
paths = (
{
closed = 1;
nodes = (
"95 191 OFFCURVE",
"182 198 OFFCURVE",
"247 132 CURVE SMOOTH",
"263 115 OFFCURVE",
"243 -9 OFFCURVE",
"216 1 CURVE SMOOTH",
"115 38 OFFCURVE",
"95 3 OFFCURVE",
"70 1 CURVE SMOOTH",
"34 -1 OFFCURVE",
"35 105 OFFCURVE",
"50 126 CURVE SMOOTH"
);
},
{
closed = 1;
nodes = (
"314 412 OFFCURVE",
"193 472 OFFCURVE",
"127 555 CURVE SMOOTH",
"89 603 OFFCURVE",
"79 634 OFFCURVE",
"85 674 CURVE SMOOTH",
"91 713 OFFCURVE",
"96 750 OFFCURVE",
"110 750 CURVE SMOOTH",
"141 750 OFFCURVE",
"182 670 OFFCURVE",
"373 532 CURVE SMOOTH",
"471 461 OFFCURVE",
"422 389 OFFCURVE",
"411 350 CURVE SMOOTH",
"406 330 OFFCURVE",
"400 306 OFFCURVE",
"384 290 CURVE",
"371 277 OFFCURVE",
"361 289 OFFCURVE",
"357 290 CURVE SMOOTH",
"330 300 OFFCURVE",
"362 341 OFFCURVE",
"350 359 CURVE SMOOTH"
);
},
{
closed = 1;
nodes = (
"187 629 LINE",
"198 622 OFFCURVE",
"195 594 OFFCURVE",
"195 581 CURVE SMOOTH",
"191 419 OFFCURVE",
"179 300 OFFCURVE",
"181 138 CURVE",
"181 121 OFFCURVE",
"174 77 OFFCURVE",
"156 50 CURVE SMOOTH",
"137 21 OFFCURVE",
"105 27 OFFCURVE",
"105 62 CURVE SMOOTH",
"105 241 OFFCURVE",
"117 465 OFFCURVE",
"121 632 CURVE SMOOTH",
"121 647 OFFCURVE",
"131 666 OFFCURVE",
"154 651 CURVE SMOOTH"
);
},
{
closed = 1;
nodes = (
"390 342 LINE SMOOTH",
"404 330 OFFCURVE",
"392 213 OFFCURVE",
"225 213 CURVE SMOOTH",
"127 213 OFFCURVE",
"84 235 OFFCURVE",
"89 272 CURVE SMOOTH",
"104 382 OFFCURVE",
"72 382 OFFCURVE",
"235 359 CURVE SMOOTH",
"284 352 OFFCURVE",
"355 332 OFFCURVE",
"353 351 CURVE SMOOTH",
"352 360 OFFCURVE",
"377 353 OFFCURVE",
"383 348 CURVE SMOOTH"
);
}
);
width = 453;
}
);
leftMetricsKey = "=P";
rightMetricsKey = "=P";
unicode = 0070;
},
{
glyphname = q;
lastChange = "2023-06-27 23:00:35 +0000";
layers = (
{
layerId = "506641A2-9742-4A10-B0B8-C0DC56E2C3BB";
paths = (
{
closed = 1;
nodes = (
"-22 351 OFFCURVE",
"72 603 OFFCURVE",
"156 648 CURVE SMOOTH",
"173 657 OFFCURVE",
"193 589 OFFCURVE",
"180 575 CURVE SMOOTH",
"165 559 OFFCURVE",
"165 558 OFFCURVE",
"150 540 CURVE SMOOTH",
"94 473 OFFCURVE",
"91 349 OFFCURVE",
"150 267 CURVE SMOOTH",
"205 191 OFFCURVE",
"269 174 OFFCURVE",
"299 168 CURVE",
"359 156 OFFCURVE",
"361 113 OFFCURVE",
"327 72 CURVE SMOOTH",
"292 29 OFFCURVE",
"251 -13 OFFCURVE",
"193 7 CURVE",
"143 29 OFFCURVE",
"65 94 OFFCURVE",
"40 169 CURVE SMOOTH"
);
},
{
closed = 1;
nodes = (
"463 289 OFFCURVE",
"458 182 OFFCURVE",
"387 108 CURVE",
"356 75 OFFCURVE",
"314 43 OFFCURVE",
"288 55 CURVE SMOOTH",
"261 67 OFFCURVE",
"257 139 OFFCURVE",
"264 157 CURVE SMOOTH",
"271 174 OFFCURVE",
"312 163 OFFCURVE",
"332 176 CURVE SMOOTH",
"365 197 OFFCURVE",
"323 334 OFFCURVE",
"264 416 CURVE SMOOTH",
"209 492 OFFCURVE",
"188 555 OFFCURVE",
"158 561 CURVE",
"100 596 OFFCURVE",
"130 704 OFFCURVE",
"164 745 CURVE SMOOTH",
"206 797 OFFCURVE",
"396 487 OFFCURVE",
"416 429 CURVE SMOOTH"
);
},
{
closed = 1;
nodes = (
"293 135 OFFCURVE",
"336 37 OFFCURVE",
"203 287 CURVE",
"184 325 OFFCURVE",
"205 382 OFFCURVE",
"237 366 CURVE SMOOTH",
"255 357 OFFCURVE",
"400 109 OFFCURVE",
"443 25 CURVE SMOOTH",
"451 9 OFFCURVE",
"455 -17 OFFCURVE",
"452 -49 CURVE SMOOTH",
"449 -84 OFFCURVE",
"426 -106 OFFCURVE",
"409 -75 CURVE SMOOTH"
);
},
{
closed = 1;
nodes = (
"362 65 OFFCURVE",
"451 74 OFFCURVE",
"514 -4 CURVE",
"532 -22 OFFCURVE",
"510 -167 OFFCURVE",
"483 -155 CURVE SMOOTH",
"382 -112 OFFCURVE",
"362 -153 OFFCURVE",
"337 -155 CURVE SMOOTH",
"301 -158 OFFCURVE",
"302 -35 OFFCURVE",
"317 -10 CURVE SMOOTH"
);
}
);
width = 541;
}
);
leftKerningGroup = Q;
leftMetricsKey = "=Q";
rightKerningGroup = Q;
rightMetricsKey = "=Q";
unicode = 0071;
},
{
glyphname = r;
lastChange = "2023-06-27 22:57:25 +0000";
layers = (
{
layerId = "506641A2-9742-4A10-B0B8-C0DC56E2C3BB";
paths = (
{
closed = 1;
nodes = (
"95 191 OFFCURVE",
"182 198 OFFCURVE",
"247 132 CURVE SMOOTH",
"263 115 OFFCURVE",
"243 -9 OFFCURVE",
"216 1 CURVE SMOOTH",
"115 38 OFFCURVE",
"95 3 OFFCURVE",
"70 1 CURVE SMOOTH",
"34 -1 OFFCURVE",
"35 105 OFFCURVE",
"50 126 CURVE SMOOTH"
);
},
{
closed = 1;
nodes = (
"206 381 OFFCURVE",
"133 407 OFFCURVE",
"180 455 CURVE SMOOTH",
"203 478 OFFCURVE",
"271 484 OFFCURVE",
"295 525 CURVE",
"318 558 OFFCURVE",
"309 593 OFFCURVE",
"258 602 CURVE SMOOTH",
"148 621 OFFCURVE",
"153 396 OFFCURVE",
"153 396 CURVE SMOOTH",
"157 226 OFFCURVE",
"209 35 OFFCURVE",
"144 35 CURVE SMOOTH",
"101 35 OFFCURVE",
"118 84 OFFCURVE",
"102 314 CURVE SMOOTH",
"91 474 OFFCURVE",
"69 569 OFFCURVE",
"123 661 CURVE",
"193 781 OFFCURVE",
"279 776 OFFCURVE",
"332 733 CURVE SMOOTH",
"455 633 OFFCURVE",
"363 405 OFFCURVE",
"232 385 CURVE SMOOTH"
);
},
{
closed = 1;
nodes = (
"118 407 OFFCURVE",
"58 549 OFFCURVE",
"112 586 CURVE SMOOTH",
"139 605 OFFCURVE",
"184 627 OFFCURVE",
"194 565 CURVE SMOOTH",
"214 439 OFFCURVE",
"388 182 OFFCURVE",
"486 173 CURVE SMOOTH",
"523 170 OFFCURVE",
"540 196 OFFCURVE",
"555 188 CURVE SMOOTH",
"564 183 OFFCURVE",
"566 159 OFFCURVE",
"545 106 CURVE SMOOTH",
"523 53 OFFCURVE",
"484 13 OFFCURVE",
"411 41 CURVE SMOOTH",
"298 84 OFFCURVE",
"189 232 OFFCURVE",
"144 343 CURVE SMOOTH"
);
}
);
width = 601;
}
);
leftKerningGroup = R;
leftMetricsKey = "=R";
rightKerningGroup = R;
rightMetricsKey = "=R";
unicode = 0072;
},
{
glyphname = s;
lastChange = "2023-06-27 22:19:12 +0000";
layers = (
{
layerId = "506641A2-9742-4A10-B0B8-C0DC56E2C3BB";
paths = (
{
closed = 1;
nodes = (
"93 617 LINE SMOOTH",
"118 705 OFFCURVE",
"103 566 OFFCURVE",
"270 475 CURVE",
"360 425 OFFCURVE",
"382 332 OFFCURVE",
"382 289 CURVE SMOOTH",
"382 246 OFFCURVE",
"331 117 OFFCURVE",
"331 156 CURVE SMOOTH",
"331 195 OFFCURVE",
"317 271 OFFCURVE",
"210 342 CURVE SMOOTH",
"103 413 OFFCURVE",
"54 482 OFFCURVE",
"75 554 CURVE SMOOTH"
);
},
{
closed = 1;
nodes = (
"118 342 OFFCURVE",
"92 296 OFFCURVE",
"90 252 CURVE SMOOTH",
"88 208 OFFCURVE",
"102 161 OFFCURVE",
"161 149 CURVE SMOOTH",
"226 136 OFFCURVE",
"271 150 OFFCURVE",
"303 178 CURVE SMOOTH",
"330 201 OFFCURVE",
"311 236 OFFCURVE",
"304 265 CURVE SMOOTH",
"292 315 OFFCURVE",
"455 438 OFFCURVE",
"342 110 CURVE SMOOTH",
"324 57 OFFCURVE",
"245 8 OFFCURVE",
"170 5 CURVE SMOOTH",
"126 3 OFFCURVE",
"84 17 OFFCURVE",
"40 72 CURVE SMOOTH",
"4 117 OFFCURVE",
"12 290 OFFCURVE",
"102 334 CURVE SMOOTH"
);
},
{
closed = 1;
nodes = (
"283 467 OFFCURVE",
"320 580 OFFCURVE",
"237 612 CURVE SMOOTH",
"209 623 OFFCURVE",
"183 625 OFFCURVE",
"155 600 CURVE SMOOTH",
"131 579 OFFCURVE",
"179 558 OFFCURVE",
"185 531 CURVE SMOOTH",
"195 485 OFFCURVE",
"5 369 OFFCURVE",
"105 669 CURVE SMOOTH",
"121 718 OFFCURVE",
"180 758 OFFCURVE",
"247 761 CURVE SMOOTH",
"286 763 OFFCURVE",
"326 750 OFFCURVE",
"366 700 CURVE SMOOTH",
"398 659 OFFCURVE",
"363 588 OFFCURVE",
"316 517 CURVE SMOOTH"
);
}
);
width = 402;
}
);
leftMetricsKey = "=S";
rightMetricsKey = "=S";
unicode = 0073;
},
{
glyphname = t;
lastChange = "2023-06-27 22:41:34 +0000";
layers = (
{
layerId = "506641A2-9742-4A10-B0B8-C0DC56E2C3BB";
paths = (
{
closed = 1;
nodes = (
"202 8 OFFCURVE",
"234 14 OFFCURVE",
"255 42 CURVE SMOOTH",
"275 67 OFFCURVE",
"284 93 OFFCURVE",
"286 110 CURVE SMOOTH",
"294 204 OFFCURVE",
"313 595 OFFCURVE",
"302 612 CURVE SMOOTH",
"284 642 OFFCURVE",
"235 605 OFFCURVE",
"232 563 CURVE SMOOTH",
"211 280 OFFCURVE",
"217 282 OFFCURVE",
"204 43 CURVE SMOOTH"
);
},
{
closed = 1;
nodes = (
"40 737 OFFCURVE",
"26 594 OFFCURVE",
"72 569 CURVE SMOOTH",
"196 500 OFFCURVE",
"287 482 OFFCURVE",
"443 577 CURVE",
"471 592 OFFCURVE",
"487 765 OFFCURVE",
"453 750 CURVE",
"395 727 OFFCURVE",
"375 682 OFFCURVE",
"251 679 CURVE SMOOTH",
"114 676 OFFCURVE",
"77 765 OFFCURVE",
"52 746 CURVE SMOOTH"
);
},
{
closed = 1;
nodes = (
"129 119 OFFCURVE",
"128 -4 OFFCURVE",
"164 -1 CURVE SMOOTH",
"189 1 OFFCURVE",
"209 42 OFFCURVE",
"310 -1 CURVE SMOOTH",
"337 -13 OFFCURVE",
"359 132 OFFCURVE",
"341 150 CURVE",
"278 228 OFFCURVE",
"189 219 OFFCURVE",
"144 144 CURVE SMOOTH"
);
}
);
width = 512;
}
);
leftKerningGroup = T;
leftMetricsKey = "=T";
rightKerningGroup = T;
rightMetricsKey = "=T";
unicode = 0074;
},
{
glyphname = u;
lastChange = "2023-06-27 22:36:22 +0000";
layers = (
{
layerId = "506641A2-9742-4A10-B0B8-C0DC56E2C3BB";
paths = (
{
closed = 1;
nodes = (
"259 632 OFFCURVE",
"260 755 OFFCURVE",
"224 752 CURVE SMOOTH",
"195 750 OFFCURVE",
"179 709 OFFCURVE",
"78 752 CURVE SMOOTH",
"51 764 OFFCURVE",
"29 619 OFFCURVE",
"47 601 CURVE",
"110 523 OFFCURVE",
"199 532 OFFCURVE",
"244 607 CURVE SMOOTH"
);
},
{
closed = 1;
nodes = (
"581 632 OFFCURVE",
"582 755 OFFCURVE",
"546 752 CURVE SMOOTH",
"517 750 OFFCURVE",
"501 709 OFFCURVE",
"400 752 CURVE SMOOTH",
"373 764 OFFCURVE",
"351 619 OFFCURVE",
"369 601 CURVE",
"432 523 OFFCURVE",
"521 532 OFFCURVE",
"566 607 CURVE SMOOTH"
);
},
{
closed = 1;
nodes = (
"103 264 OFFCURVE",
"176 228 OFFCURVE",
"188 255 CURVE SMOOTH",
"194 268 LINE",
"194 268 OFFCURVE",
"177 574 OFFCURVE",
"176 690 CURVE SMOOTH",
"176 709 OFFCURVE",
"154 710 OFFCURVE",
"140 700 CURVE",
"97 668 OFFCURVE",
"101 666 OFFCURVE",
"100 605 CURVE SMOOTH",
"97 333 OFFCURVE",
"96 559 OFFCURVE",
"102 320 CURVE SMOOTH"
);
},
{
closed = 1;
nodes = (
"99 428 OFFCURVE",
"99 429 OFFCURVE",
"99 378 CURVE",
"99 325 OFFCURVE",
"105 209 OFFCURVE",
"170 101 CURVE SMOOTH",
"228 5 OFFCURVE",
"286 -2 OFFCURVE",
"330 0 CURVE SMOOTH",
"405 3 OFFCURVE",
"461 71 OFFCURVE",
"481 123 CURVE SMOOTH",
"524 237 OFFCURVE",
"515 331 OFFCURVE",
"500 353 CURVE SMOOTH",
"477 386 OFFCURVE",
"418 316 OFFCURVE",
"420 280 CURVE SMOOTH",
"422 227 OFFCURVE",
"366 186 OFFCURVE",
"318 184 CURVE SMOOTH",
"247 181 OFFCURVE",
"191 255 OFFCURVE",
"193 299 CURVE",
"188 346 OFFCURVE",
"192 459 OFFCURVE",
"143 450 CURVE"
);
},
{
closed = 1;
nodes = (
"421 224 OFFCURVE",
"501 203 OFFCURVE",
"506 244 CURVE SMOOTH",
"512 292 LINE SMOOTH",
"512 292 OFFCURVE",
"497 574 OFFCURVE",
"496 690 CURVE SMOOTH",
"496 709 OFFCURVE",
"474 710 OFFCURVE",
"460 700 CURVE SMOOTH",
"417 668 OFFCURVE",
"421 666 OFFCURVE",
"420 605 CURVE SMOOTH",
"417 333 OFFCURVE",
"414 519 OFFCURVE",
"420 280 CURVE SMOOTH"
);
}
);
width = 616;
}
);
leftKerningGroup = U;
leftMetricsKey = "=U";
rightKerningGroup = U;
rightMetricsKey = "=U";
unicode = 0075;
},
{
glyphname = v;
lastChange = "2023-06-27 22:48:46 +0000";
layers = (
{
layerId = "506641A2-9742-4A10-B0B8-C0DC56E2C3BB";
paths = (
{
closed = 1;
nodes = (
"260 -62 OFFCURVE",
"293 163 OFFCURVE",
"283 209 CURVE SMOOTH",
"271 266 OFFCURVE",
"205 722 OFFCURVE",
"78 747 CURVE SMOOTH",
"43 754 OFFCURVE",
"3 625 OFFCURVE",
"28 593 CURVE SMOOTH",
"118 477 OFFCURVE",
"167 196 OFFCURVE",
"232 16 CURVE SMOOTH"
);
},
{
closed = 1;
nodes = (
"233 -2 OFFCURVE",
"242 -9 OFFCURVE",
"263 19 CURVE SMOOTH",
"283 44 OFFCURVE",
"295 70 OFFCURVE",
"294 87 CURVE SMOOTH",
"283 443 OFFCURVE",
"414 662 OFFCURVE",
"414 722 CURVE",
"396 752 OFFCURVE",
"357 713 OFFCURVE",
"344 673 CURVE SMOOTH",
"268 438 OFFCURVE",
"248 272 OFFCURVE",
"235 33 CURVE SMOOTH"
);
},
{
closed = 1;
nodes = (
"487 632 OFFCURVE",
"488 755 OFFCURVE",
"452 752 CURVE SMOOTH",
"423 750 OFFCURVE",
"407 709 OFFCURVE",
"306 752 CURVE SMOOTH",
"279 764 OFFCURVE",
"257 619 OFFCURVE",
"275 601 CURVE",
"338 523 OFFCURVE",
"427 532 OFFCURVE",
"472 607 CURVE SMOOTH"
);
}
);
width = 502;
}
);
leftKerningGroup = V;
leftMetricsKey = "=V";
rightKerningGroup = V;
rightMetricsKey = "=V";
unicode = 0076;
},
{
glyphname = w;
lastChange = "2023-06-27 22:37:47 +0000";
layers = (
{
layerId = "506641A2-9742-4A10-B0B8-C0DC56E2C3BB";
paths = (
{
closed = 1;
nodes = (
"260 -62 OFFCURVE",
"293 163 OFFCURVE",
"283 209 CURVE SMOOTH",
"271 266 OFFCURVE",
"205 722 OFFCURVE",
"78 747 CURVE SMOOTH",
"43 754 OFFCURVE",
"3 625 OFFCURVE",
"28 593 CURVE SMOOTH",
"118 477 OFFCURVE",
"167 196 OFFCURVE",
"232 16 CURVE SMOOTH"
);
},
{
closed = 1;
nodes = (
"233 -2 OFFCURVE",
"242 -9 OFFCURVE",
"263 19 CURVE SMOOTH",
"283 44 OFFCURVE",
"295 70 OFFCURVE",
"294 87 CURVE SMOOTH",
"283 443 OFFCURVE",
"377 489 OFFCURVE",
"377 549 CURVE",
"359 579 OFFCURVE",
"320 540 OFFCURVE",
"307 500 CURVE SMOOTH",
"233 264 OFFCURVE",
"248 272 OFFCURVE",
"235 33 CURVE SMOOTH"
);
},
{
closed = 1;
nodes = (
"430 -65 OFFCURVE",
"481 157 OFFCURVE",
"475 204 CURVE SMOOTH",
"468 261 OFFCURVE",
"439 721 OFFCURVE",
"315 756 CURVE SMOOTH",
"280 766 OFFCURVE",
"230 641 OFFCURVE",
"252 607 CURVE SMOOTH",
"333 484 OFFCURVE",
"359 200 OFFCURVE",
"409 15 CURVE SMOOTH"
);
},
{
closed = 1;
nodes = (
"408 -3 OFFCURVE",
"417 -10 OFFCURVE",
"440 16 CURVE SMOOTH",
"462 39 OFFCURVE",
"475 64 OFFCURVE",
"476 81 CURVE SMOOTH",
"493 437 OFFCURVE",
"647 656 OFFCURVE",
"652 716 CURVE",
"637 747 OFFCURVE",
"595 712 OFFCURVE",
"579 673 CURVE SMOOTH",
"486 444 OFFCURVE",
"445 269 OFFCURVE",
"413 32 CURVE SMOOTH"
);
},
{
closed = 1;
nodes = (
"717 632 OFFCURVE",
"718 755 OFFCURVE",
"682 752 CURVE SMOOTH",
"653 750 OFFCURVE",
"637 709 OFFCURVE",
"536 752 CURVE SMOOTH",
"509 764 OFFCURVE",
"487 619 OFFCURVE",
"505 601 CURVE",
"568 523 OFFCURVE",
"657 532 OFFCURVE",
"702 607 CURVE SMOOTH"
);
}
);
width = 732;
}
);
leftKerningGroup = V;
leftMetricsKey = "=W";
rightKerningGroup = V;
rightMetricsKey = "=W";
unicode = 0077;
},
{
glyphname = x;
lastChange = "2023-06-27 22:20:06 +0000";
layers = (
{
layerId = "506641A2-9742-4A10-B0B8-C0DC56E2C3BB";
paths = (
{
closed = 1;
nodes = (
"392 -45 OFFCURVE",
"476 90 OFFCURVE",
"463 113 CURVE",
"411 195 OFFCURVE",
"184 683 OFFCURVE",
"133 750 CURVE SMOOTH",
"111 779 OFFCURVE",
"23 605 OFFCURVE",
"67 557 CURVE",
"140 419 OFFCURVE",
"281 172 OFFCURVE",
"368 2 CURVE SMOOTH"
);
},
{
closed = 1;
nodes = (
"55 5 OFFCURVE",
"72 4 OFFCURVE",
"104 19 CURVE SMOOTH",
"130 31 OFFCURVE",
"130 29 OFFCURVE",
"134 45 CURVE",
"231 388 OFFCURVE",
"451 664 OFFCURVE",
"469 722 CURVE",
"463 749 OFFCURVE",
"403 718 OFFCURVE",
"387 696 CURVE SMOOTH",
"244 494 OFFCURVE",
"152 262 OFFCURVE",
"67 38 CURVE"
);
},
{
closed = 1;
nodes = (
"500 630 OFFCURVE",
"501 753 OFFCURVE",
"465 750 CURVE SMOOTH",
"443 748 OFFCURVE",
"421 707 OFFCURVE",
"319 750 CURVE SMOOTH",
"292 762 OFFCURVE",
"270 617 OFFCURVE",
"288 599 CURVE",
"351 521 OFFCURVE",
"440 530 OFFCURVE",
"485 605 CURVE SMOOTH"
);
},
{
closed = 1;
nodes = (
"15 118 OFFCURVE",
"14 -5 OFFCURVE",
"50 -2 CURVE SMOOTH",
"79 0 OFFCURVE",
"95 41 OFFCURVE",
"196 -2 CURVE SMOOTH",
"223 -14 OFFCURVE",
"246 131 OFFCURVE",
"228 149 CURVE",
"165 227 OFFCURVE",
"75 218 OFFCURVE",
"30 143 CURVE SMOOTH"
);
}
);
width = 515;
}
);
leftMetricsKey = "=X";
rightMetricsKey = "=X";
unicode = 0078;
},
{
glyphname = y;
lastChange = "2023-06-27 22:20:18 +0000";
layers = (
{
layerId = "506641A2-9742-4A10-B0B8-C0DC56E2C3BB";
paths = (
{
closed = 1;
nodes = (
"282 389 OFFCURVE",
"266 485 OFFCURVE",
"270 508 CURVE SMOOTH",
"274 531 OFFCURVE",
"273 574 OFFCURVE",
"265 564 CURVE SMOOTH",
"248 542 OFFCURVE",
"237 543 OFFCURVE",
"225 543 CURVE SMOOTH",
"205 543 OFFCURVE",
"163 551 OFFCURVE",
"134 585 CURVE SMOOTH",
"117 606 OFFCURVE",
"100 673 OFFCURVE",
"89 706 CURVE SMOOTH",
"48 830 OFFCURVE",
"14 642 OFFCURVE",
"21 592 CURVE",
"22 589 OFFCURVE",
"31 500 OFFCURVE",
"85 436 CURVE SMOOTH",
"107 410 OFFCURVE",
"157 389 OFFCURVE",
"187 389 CURVE SMOOTH"
);
},
{
closed = 1;
nodes = (
"179 44 OFFCURVE",
"198 18 OFFCURVE",
"222 32 CURVE",
"251 45 OFFCURVE",
"270 113 OFFCURVE",
"263 126 CURVE",
"215 245 OFFCURVE",
"210 312 OFFCURVE",
"249 391 CURVE SMOOTH",
"302 498 OFFCURVE",
"419 592 OFFCURVE",
"428 688 CURVE",
"433 741 OFFCURVE",
"410 776 OFFCURVE",
"387 740 CURVE SMOOTH",
"340 667 OFFCURVE",
"255 560 OFFCURVE",
"221 496 CURVE SMOOTH",
"147 359 OFFCURVE",
"65 270 OFFCURVE",
"162 78 CURVE SMOOTH"
);
},
{
closed = 1;
nodes = (
"87 118 OFFCURVE",
"86 -5 OFFCURVE",
"122 -2 CURVE SMOOTH",
"151 0 OFFCURVE",
"167 41 OFFCURVE",
"268 -2 CURVE SMOOTH",
"295 -14 OFFCURVE",
"318 131 OFFCURVE",
"300 149 CURVE",
"237 227 OFFCURVE",
"147 218 OFFCURVE",
"102 143 CURVE SMOOTH"
);
}
);
width = 449;
}
);
leftMetricsKey = "=Y";
rightMetricsKey = "=Y";
unicode = 0079;
},
{
glyphname = z;
lastChange = "2023-06-27 22:20:37 +0000";
layers = (
{
layerId = "506641A2-9742-4A10-B0B8-C0DC56E2C3BB";
paths = (
{
closed = 1;
nodes = (
"30 770 OFFCURVE",
"166 722 OFFCURVE",
"232 723 CURVE",
"331 716 OFFCURVE",
"412 749 OFFCURVE",
"441 737 CURVE SMOOTH",
"454 732 OFFCURVE",
"454 616 OFFCURVE",
"438 609 CURVE SMOOTH",
"375 581 OFFCURVE",
"167 542 OFFCURVE",
"41 604 CURVE SMOOTH",
"10 619 OFFCURVE",
"24 693 OFFCURVE",
"27 732 CURVE SMOOTH"
);
},
{
closed = 1;
nodes = (
"168 409 OFFCURVE",
"149 409 OFFCURVE",
"383 660 CURVE SMOOTH",
"418 698 OFFCURVE",
"449 653 OFFCURVE",
"443 615 CURVE",
"417 560 OFFCURVE",
"212 415 OFFCURVE",
"105 115 CURVE SMOOTH",
"94 85 OFFCURVE",
"88 84 OFFCURVE",
"60 80 CURVE SMOOTH",
"25 76 OFFCURVE",
"27 134 OFFCURVE",
"27 134 CURVE"
);
},
{
closed = 1;
nodes = (
"439 -22 OFFCURVE",
"271 53 OFFCURVE",
"196 51 CURVE SMOOTH",
"110 49 OFFCURVE",
"55 -12 OFFCURVE",
"28 0 CURVE SMOOTH",
"16 5 OFFCURVE",
"17 126 OFFCURVE",
"29 137 CURVE",
"189 285 OFFCURVE",
"273 164 OFFCURVE",
"439 149 CURVE SMOOTH",
"471 146 OFFCURVE",
"444 55 OFFCURVE",
"441 16 CURVE SMOOTH"
);
}
);
width = 474;
}
);
leftMetricsKey = "=Z";
rightMetricsKey = "=Z";
unicode = 007A;
},
